<svg width="487" height="308" viewBox="0 0 487 308" fill="none" xmlns="http://www.w3.org/2000/svg">
<path d="M272.701 300.659C316.111 297.659 359.033 298.659 402.443 298.659C425.855 298.659 471.214 301.659 478.531 271.159C482.474 254.779 473.998 243.894 470.662 228.816C467.207 213.2 460.955 197.781 469.611 182.52C475.533 172.08 485.865 161.536 485.523 148.659C485.035 130.339 469.281 116.593 454.9 107.521C445.125 101.355 434.587 97.5832 426.341 89.1772C421.212 83.9482 416.161 78.3482 411.364 72.7872C399.899 59.4972 302.622 35.2552 293.745 34.9782C282.413 34.6262 271.547 34.6642 260.395 37.1572C251.759 39.0902 242.996 40.0852 234.191 41.0312C216.113 42.9782 196.718 43.6522 179.051 38.7782C137.425 27.2962 97.043 -3.83281 53.201 17.1452C29.788 28.3482 16.559 51.6542 9.69599 76.4262C5.29999 92.2882 3.62399 107.172 4.92499 123.657C6.26699 140.669 5.56895 158.4 9.73395 175.015C16.7419 202.97 31.069 228.81 49.571 250.443C68.161 272.178 90.281 291.631 119.146 295.672C126.108 296.648 133.042 297.728 139.911 299.268C160.391 303.859 181.568 303.616 202.406 303.429C225.86 303.225 249.301 302.276 272.701 300.659Z" fill="#FCE8C6"/>
<path d="M309.989 301.012C291.778 250.789 289.1 192.486 281.6 139.955C277.315 109.935 264.996 34.8922 266.602 29.1182C269.281 16.9962 290.706 19.3051 300.347 19.3051C341.054 21.6141 382.294 23.9221 422.468 30.2721C437.999 33.1591 485.669 41.8181 486.204 49.9001C486.741 53.9401 462.638 149.766 456.21 179.784C449.247 210.957 432.646 292.93 428.358 300.433" fill="#F9D9A5"/>
<path d="M318.267 242.412C310.371 241.848 299.044 238.136 294.732 247.889C292.179 253.659 294.32 264.319 294.933 270.577C296.105 282.553 300.267 306.241 315.757 307.129C322.771 307.529 329.919 306.03 337.089 306.458C347.862 307.101 358.771 307.986 369.478 306.114C380.718 304.24 387.587 303.303 391.335 291.437C394.456 282.07 393.831 269.267 393.208 259.275C392.895 254.59 393.208 250.219 389.462 248.034C383.839 244.912 374.159 246.472 367.915 246.161C351.366 245.534 335.128 243.348 318.267 242.412Z" fill="#7E4F22"/>
<path d="M308.472 159.461C308.665 158.278 308.89 157.1 309.091 155.92C309.726 152.179 311.571 147.522 314.325 144.896C315.307 143.959 319.929 140.004 317.483 138.59C315.446 137.414 310.063 139.903 308.169 140.696C305.108 141.979 302.22 143.69 299.511 145.604C288.374 153.475 279.53 165.348 274.738 178.085C272.512 184.002 269.66 193.013 272.679 199.113C277.816 209.495 292.475 212.594 302.86 213.056C305.59 213.177 310.575 213.202 310.516 209.68C310.465 206.653 307.758 203.04 305.983 200.775C303.081 197.073 298.493 194.171 299.323 189.284C300.087 184.78 301.255 180.078 302.796 175.761C303.651 173.365 305.546 171.686 306.401 169.31C307.411 166.504 307.846 163.688 308.27 160.751C308.333 160.322 308.402 159.891 308.472 159.461Z" fill="#9AD4D7"/>
<path d="M319.288 153.139C314.37 166.432 310.86 178.721 309.181 192.773C307.583 206.135 305.882 220.349 301.077 232.989C299.536 237.043 298.556 241.949 298.604 246.237C298.667 251.749 300.942 252.825 305.149 256.067C313.088 262.185 322.53 263.408 332.624 263.827C346.302 264.395 360.329 263.265 373.864 262.077C378.932 261.633 388.823 263.081 391.893 258.08C396.151 251.148 394.704 241.07 395.854 233.366C397.471 222.523 398.551 209.681 394.458 199.306C390.843 190.148 384.251 182.927 379.163 174.638C375.595 168.825 373.128 162.003 368.558 156.845C359.154 146.228 340.843 147.39 328.605 150.905" fill="#9AD4D7"/>
<path d="M356.822 155.621C356.713 155.496 356.607 155.372 356.498 155.248C354.398 152.844 352.135 150.592 349.721 148.535C348.483 147.477 347 147.019 347.444 145.235C347.96 143.155 348.735 141.131 349.731 139.255C351.127 136.631 352.952 134.705 354.848 132.481C355.852 131.301 356.961 130.289 358.026 129.172C359.7 127.424 361.965 126.344 364.231 125.706C367.067 124.908 371.438 126.835 374.186 127.801C377.538 128.979 380.784 130.487 383.858 132.315C389.946 135.938 395.356 140.836 399.516 146.753C409.811 161.393 412.12 179.614 408.395 196.847C406.346 205.966 402.791 214.783 396.819 221.768C391.083 228.422 382.846 232.789 374.79 235.569C363.411 239.525 350.11 239.912 338.481 236.748C334.2 235.582 331.518 233.07 327.799 230.894C322.502 227.791 321.901 225.568 321.063 219.541C320.799 217.646 320.042 213.446 321.383 211.885C323.237 209.732 329.207 210.405 331.697 210.255C335.244 210.041 338.138 209.013 341.556 208.237C349.954 206.334 357.964 204.486 363.667 197.399C369.448 190.219 369.976 180.911 366.921 172.336C364.708 166.129 361.042 160.522 356.822 155.621Z" fill="#9AD4D7"/>
<path d="M347.829 163.794C349.011 160.421 350.177 157.041 351.475 153.718C352.262 151.705 353.098 149.713 354.016 147.762C354.87 145.949 355.725 143.882 356.963 142.321C358.08 140.916 358.574 138.907 359.416 137.284C360.385 135.424 361.49 133.636 362.732 131.963C364.105 130.114 365.361 128.248 366.888 126.562C367.439 125.958 368.415 124.946 369.279 124.953C370.047 124.961 370.988 125.534 371.689 125.825C372.918 126.34 374.132 126.885 375.312 127.504C376.365 128.054 378.468 128.511 378.244 129.923C378.058 131.102 375.83 133.147 375.121 134.145C373.123 136.948 371.24 139.85 369.644 142.926C366.384 149.198 364.544 156.158 365.15 163.335C365.546 168.004 367.722 172.149 368.412 176.71C368.637 178.197 368.264 179.653 368.43 181.15C369.274 188.714 369.514 196.717 372.061 203.963C373.6 208.338 375.854 206.575 379.842 205.428C383.356 204.417 386.785 203.184 390.147 201.743C391.704 201.077 393.028 200.639 394.71 200.572C397.847 200.447 399.378 200.926 400.618 203.666C404.35 211.913 404.97 225.343 405.249 234.077C405.749 249.702 400.749 265.077 400.749 265.077H322.749C322.749 265.077 316.874 255.952 318.571 224.192C319.003 216.129 322.448 209.924 325.813 202.794C328.895 196.257 335.063 192.283 339.12 186.278C343.779 179.377 345.161 171.401 347.829 163.794Z" fill="#E9483A"/>
<path d="M284.624 222.452C285.522 215.017 291.487 198.841 295.628 189.685C299.214 181.762 300.077 172.331 303.183 164.005C304.54 160.357 305.365 156.55 306.591 152.861C307.077 151.392 307.558 149.794 308.2 148.395C309.436 145.704 313.749 139.463 316.188 138.122C318.538 136.828 319.797 143.296 321.87 144.683C321.964 146.412 322.434 147.615 322.186 149.431C321.952 151.154 321.717 152.806 321.577 154.539C321.227 158.731 319.77 162.797 318.63 166.808C316.146 175.522 315.946 183.78 318.304 192.592C319.796 198.169 321.148 202.179 319.398 207.969C318.298 211.602 308.511 232.765 307.252 241.574C306.768 244.953 307.502 259.199 307.502 259.199L286.502 250.824C286.499 250.827 283.651 230.506 284.624 222.452Z" fill="#E9483A"/>
<path d="M366.28 115.578C371.093 117.186 373.671 120.165 373.313 125.61C373.014 129.695 371.583 132.469 368.022 134.339C365.801 135.363 364.055 135.618 361.747 136.185C358.239 136.918 355.53 141.451 353.452 144.191C347.095 152.523 336.458 154.718 326.753 155.592C323.825 155.782 320.687 156.989 317.786 155.976C316.44 155.503 315.432 155.102 315.503 153.404C315.558 152.071 316.226 150.857 316.316 149.539C316.379 148.616 316.316 147.616 316.127 146.712C315.971 145.964 315.785 145.398 315.93 144.629C316.078 143.845 316.014 143.243 315.86 142.46C315.669 141.484 315.602 140.488 315.506 139.501C315.328 137.647 315.018 135.822 314.947 133.957C314.896 132.667 314.847 131.363 314.859 130.073C314.89 127.345 313.912 124.819 313.66 122.15C312.556 110.352 315.719 100.816 315.994 99.9372C317.158 96.2372 319.836 92.5292 322.09 89.4292C325.686 84.4872 330.68 82.1192 336.549 82.0752C343.498 82.0862 353.104 83.3682 358.539 87.9712C362.191 91.2312 364.16 95.6552 365.018 100.595C365.45 103.008 365.463 105.059 364.928 107.31C364.399 109.331 363.557 111.112 364.215 113.308" fill="#ECAD89"/>
<path d="M371.572 106.773C376.345 110.05 377.539 115.579 372.445 119.266C369.156 121.529 365.369 120.408 363.716 124.878C362.378 128.758 364.333 131.912 365.048 135.287C366.185 142.025 362.15 147.892 358.169 152.552C351.739 160.119 340.741 166.242 331.194 166.064C326.844 166.147 321.964 165.293 318.012 162.967C316.459 162.223 314.871 161.054 313.854 159.606C313.403 158.967 312.813 158.428 312.389 157.79C311.828 156.94 311.799 155.733 311.805 154.741C311.815 153.416 312.17 152.565 312.748 151.47C313.18 150.665 313.545 149.407 313.467 148.467C313.41 147.792 313.237 147.113 313.199 146.42C312.861 139.862 318.037 138.277 322.726 137.627C327.392 136.951 333.714 136.437 339.747 139.02C344.04 140.149 349.311 143.603 353.001 138.931C360.095 129.575 344.855 120.908 348.755 111.692C351.357 105.449 361.21 105.339 360.169 96.4822C359.116 87.9262 349.993 91.1092 344.419 92.6482C338.556 94.1712 329.79 95.8542 326.687 87.8022C322.566 76.6632 337.687 75.3022 344.072 75.0182C355.093 74.6652 363.968 76.9372 369.865 87.2552C373.34 93.5032 377.338 100.993 371.281 106.759" fill="white"/>
<path d="M330.757 111.273C336.236 111.551 340.443 116.786 340.157 122.966C339.872 129.146 335.202 133.931 329.727 133.654C324.252 133.378 320.043 128.142 320.329 121.963C320.614 115.781 325.282 110.996 330.757 111.273ZM321.982 122.046C321.744 127.195 325.25 131.559 329.814 131.789C334.375 132.019 338.271 128.031 338.503 122.883C338.739 117.733 335.235 113.369 330.673 113.139C326.107 112.908 322.218 116.896 321.982 122.046Z" fill="#172446"/>
<path d="M312.439 112.852C315.822 113.023 318.367 117.41 318.127 122.647C317.887 127.886 314.947 131.995 311.568 131.823C308.187 131.652 305.64 127.266 305.88 122.027C306.12 116.79 309.06 112.682 312.439 112.852ZM306.902 122.079C306.701 126.444 308.824 130.1 311.64 130.244C314.456 130.386 316.904 126.963 317.105 122.597C317.306 118.231 315.187 114.576 312.369 114.432C309.548 114.29 307.101 117.713 306.902 122.079Z" fill="#172446"/>
<path d="M318.077 123.289L321.021 123.437L321.087 122L318.142 121.851L318.077 123.289Z" fill="#172446"/>
<path d="M364.53 116.855C366.737 116.056 368.624 115.24 370.493 117.043C371.85 118.251 372.753 119.89 373.1 121.73C373.817 125.068 373.08 129.245 370.684 131.743C368.629 133.915 363.643 136.055 360.905 134.208C358.274 132.366 359.3 129.003 360.911 127.034C363.349 123.628 362.874 122.124 362.401 118.228L364.53 116.855Z" fill="#ECAD89"/>
<path d="M366.279 116.232L339.081 119.21L339.314 123.643L362.415 118.74L366.279 116.232Z" fill="#172446"/>
<path d="M277.618 193.815C277.825 194.623 280.693 194.428 281.295 194.431C282.886 194.435 284.45 194.528 286.048 194.387C288.115 194.201 290.284 194.006 292.274 193.247C293.129 192.923 293.791 192.353 294.51 191.798C295.401 191.107 296.629 190.224 297.699 189.897C298.685 189.595 299.166 190.787 299.201 191.626C299.24 192.5 298.738 193.291 298.146 193.919C297.351 194.769 295.134 195.754 296.917 196.62C297.64 196.972 298.478 197.122 299.259 197.322C300.175 197.555 301.114 197.699 302.034 197.931C303.382 198.266 304.69 198.847 306.054 199.102C307.327 199.341 308.548 199.677 309.74 200.206C311.123 200.816 312.76 201.782 313.597 203.1C313.786 203.401 313.995 203.675 314.158 203.994C314.558 204.79 314.713 205.709 314.722 206.612C314.738 207.929 314.439 209.634 313.611 210.713C312.965 211.559 312.216 212.073 311.238 212.362C310.189 212.674 309.263 213.362 308.191 213.659C307.668 213.804 307.15 213.862 306.621 213.951C305.459 214.142 304.312 214.216 303.152 214.375C301.103 214.655 299.054 214.989 297.004 215.219C294.336 215.518 291.56 215.782 289.048 214.799C286.953 213.978 285.533 212.133 283.792 210.773C282.947 210.117 281.994 209.497 280.964 209.182C280.205 208.955 279.438 208.701 278.63 208.692C277.917 208.685 277.446 208.837 276.78 208.504" fill="#D79C81"/>
<path d="M292.042 167.889C292.582 165.793 297.037 156.014 292.925 154.501C291.518 153.981 288.158 156.697 287.085 157.48C279.61 162.941 273.765 171.848 269.257 179.829C267.122 183.607 266.281 189.676 266.111 193.979C266.013 196.417 266.358 198.695 266.715 201.086C267.046 203.3 266.988 205.853 268.967 207.28C271.039 208.776 273.646 209.104 276.113 209.305C277.349 209.407 278.683 209.739 279.688 208.877C281.066 207.695 281.256 205.055 282.045 203.536C283.966 199.845 287.198 197.147 289.056 193.58C287.681 193.033 280.992 190.526 282.67 188.544" fill="#9AD4D7"/>
<path d="M325.708 209.795C325.13 210.395 322.728 208.813 322.204 208.518C320.815 207.739 319.409 207.049 318.089 206.14C316.38 204.961 314.589 203.721 313.232 202.083C312.648 201.377 312.353 200.559 312.002 199.719C311.566 198.68 310.932 197.305 310.162 196.494C309.453 195.746 308.447 196.545 308.002 197.26C307.539 198 307.584 198.936 307.791 199.775C308.066 200.909 309.508 202.856 307.529 202.73C306.728 202.68 305.924 202.4 305.148 202.191C304.234 201.941 303.343 201.604 302.429 201.352C301.091 200.981 299.665 200.842 298.353 200.391C297.128 199.975 295.902 199.665 294.607 199.537C293.102 199.39 291.2 199.422 289.823 200.154C289.509 200.321 289.19 200.46 288.897 200.657C288.156 201.152 287.569 201.878 287.114 202.658C286.454 203.799 285.871 205.429 286.061 206.772C286.207 207.83 286.607 208.645 287.316 209.378C288.074 210.163 288.541 211.219 289.33 212.005C289.712 212.389 290.135 212.693 290.552 213.032C291.469 213.771 292.429 214.398 293.361 215.108C295.007 216.361 296.629 217.662 298.299 218.872C300.473 220.445 302.76 222.044 305.43 222.424C307.659 222.738 309.801 221.836 311.989 221.509C313.046 221.352 314.18 221.28 315.233 221.516C316.004 221.693 316.799 221.85 317.504 222.241C318.129 222.586 318.463 222.947 319.205 222.987" fill="#ECAD89"/>
<path d="M367.628 159.241C367.726 158.438 367.843 157.637 367.978 156.839C368.328 154.776 368.791 152.731 369.318 150.707C370.039 147.964 370.894 145.277 371.435 142.505C371.921 140.031 373.701 138.167 375.453 136.479C376.215 135.744 377.006 135.013 377.785 134.302C378.037 134.075 378.326 133.378 378.515 133.239C380.361 132.881 383.04 132.297 384.841 132.929C386.763 133.603 388.798 135.602 390.374 136.903C393.815 139.745 396.911 143.051 399.515 146.753C409.81 161.393 412.119 179.614 408.394 196.847C406.345 205.966 402.79 214.783 396.818 221.768C391.082 228.422 382.845 232.788 374.789 235.569C363.643 239.444 350.273 239.678 338.785 236.821C338.193 236.673 337.599 236.527 337.01 236.372C332.098 235.086 327.264 233.392 322.727 231.023C320.473 229.846 318.295 228.505 316.241 226.975C315.46 226.395 314.47 225.888 314.647 224.753C314.836 223.543 315.729 222.377 316.167 221.25C317.487 217.877 318.753 214.492 320.304 211.222C321.15 209.441 321.693 207.951 323.685 207.771C325.33 207.624 326.986 207.624 328.63 207.752C330.259 207.883 331.874 208.433 333.484 208.532C336.505 208.72 339.767 208.483 342.771 208.016C350.58 206.802 358.431 203.91 363.671 197.398C367.839 192.223 370.538 183.109 369.241 176.37C368.776 173.944 368.055 171.573 367.678 169.055C367.185 165.773 367.236 162.491 367.628 159.241Z" fill="#9AD4D7"/>
<path d="M138.457 300.39C130.802 300.077 123.162 300.459 115.318 300.706C110.831 300.849 105.37 302.087 101.704 298.889C101.396 293.516 99.9919 288.082 98.2889 282.737C97.0569 278.871 97.214 274.59 96.31 270.591C96.029 269.347 95.0309 266.367 95.3399 265.109C95.6419 263.876 96.92 263.172 97.211 262.238C102.267 260.454 107.443 259.345 112.327 257.321C117.25 255.282 122.402 254.008 127.679 253.3C142.793 251.267 157.581 253.925 172.408 256.279C177.328 260.082 169.447 303.896 164.681 304.05C161.629 304.149 157.324 302.933 154.327 302.292C148.983 301.148 143.716 300.604 138.457 300.39Z" fill="#3254A4"/>
<path d="M142.151 115.936C143.415 116.021 144.672 115.107 145.611 114.38C148.688 111.992 151.223 109.348 153.385 106.162C154.962 103.834 157.393 104.117 159.108 106.251C162.246 110.149 162.789 116.117 163.717 120.867C165.155 128.208 165.543 136.031 163.219 143.236C159.729 153.958 143.729 143.554 143.372 143.617C143.018 143.681 142.954 144.103 142.987 144.399C143.475 148.935 145.735 158.471 145.871 159.128C145.941 159.47 145.981 159.822 146.025 160.167C146.108 160.825 145.194 160.544 144.854 160.49C144.011 160.363 143.182 160.176 142.348 160.007C141.855 159.906 141.356 159.832 140.865 159.72C140.173 159.56 139.547 159.298 138.884 159.056C137.901 158.693 136.94 158.278 135.958 157.902C135.139 157.589 134.368 157.183 133.519 156.939C132.835 156.741 132.17 156.296 131.456 156.335C130.686 156.374 129.847 156.181 129.094 156.034C128.047 155.832 126.392 155.539 125.832 154.482C125.829 154.474 125.824 154.465 125.82 154.46C124.573 151.716 127.938 146.231 128.686 143.611C129.808 139.997 129.808 136.882 129.559 133.263C129.309 129.774 126.941 126.532 127.191 123.041C127.565 118.677 132.55 115.437 136.541 115.062C138.536 114.937 140.282 115.81 142.151 115.936Z" fill="#ECAD89"/>
<path d="M131.282 153.296C131.739 153.563 132.193 153.836 132.655 154.096C133.974 154.832 135.341 155.467 136.698 156.135C137.372 156.466 137.994 156.802 138.716 157.031C139.287 157.214 139.794 157.451 140.351 157.675C141.145 157.995 141.997 158.308 142.838 158.476C143.558 158.622 144.268 158.82 144.988 158.947C145.25 158.994 145.681 159.031 145.884 159.23C145.976 159.32 146.006 159.456 146.055 159.57C146.22 159.953 146.343 160.333 146.471 160.73C146.644 161.267 146.747 161.816 146.971 162.34C147.097 162.634 147.233 162.924 147.357 163.219C147.506 163.567 147.572 163.988 147.832 164.271C148.075 164.54 148.292 164.794 148.511 165.089C149.025 165.789 149.566 166.473 150.03 167.209C151.465 169.474 152.352 172.097 153.403 174.549C157.494 183.796 161.584 193.224 165.319 202.827C168.699 211.542 172.077 220.257 175.101 229.327C177.057 234.841 179.724 240.889 179.37 246.933C178.303 265.787 150.734 257.783 139.887 255.47C129.573 253.335 119.255 251.558 112.498 242.664C104.14 231.638 107.873 215.63 110.185 203.181C112.852 188.242 116.41 174.547 125.834 162.631C126.79 161.556 127.665 160.403 128.43 159.185C128.748 158.672 129.158 158.111 129.388 157.556C129.505 157.274 129.45 156.87 129.468 156.568C129.494 156.174 129.531 155.78 129.568 155.386C129.605 154.996 129.724 154.628 129.769 154.242C129.832 153.72 129.786 153.155 130.037 152.671C130.374 152.733 130.728 152.976 131.021 153.144C131.106 153.194 131.194 153.246 131.282 153.296Z" fill="#DCE1E7"/>
<path d="M178.987 252.597C189.846 251.022 200.376 247.603 210.112 242.545C215.63 239.678 229.434 236.248 229.836 228.629C230.069 224.207 228.515 224.828 225.118 222.385C221.044 219.455 217.377 216.912 212.241 216.662C208.997 216.504 205.451 217.487 202.147 217.51C193.062 217.571 182.751 214.322 175.042 209.492C168.688 205.512 167.234 199.096 164.228 192.208C160.651 184.016 157.165 175.778 152.636 168.049C151.03 165.307 147.976 161.741 145.884 159.229C145.882 168.213 148.878 177.754 151.268 186.242C154.468 197.62 158.992 208.512 163.518 219.397C167.608 229.231 171.839 239.024 174.162 249.463C174.829 252.465 176.346 252.982 178.987 252.597Z" fill="#E9483A"/>
<path d="M96.7629 178.019C93.1649 187.295 91.039 197.142 89.889 204.697C88.633 212.926 86.993 221.11 85.6 229.333C83.655 240.804 82.499 253.071 82.601 264.679C82.662 271.616 85.094 281.745 93.37 282.331C96.339 282.54 145.499 282.792 145.499 282.792C145.499 282.792 154.749 276.327 154.249 262.952C154.033 257.185 151.076 247.829 150.638 242.171C149.263 224.462 145.884 207.128 141.659 189.941C139.946 182.966 138.061 176.039 136.165 169.113C134.317 162.375 131.632 147.846 121.674 150.312C109.628 153.295 101.77 165.104 96.7629 178.019Z" fill="#E9483A"/>
<path d="M165.233 198.619C164.526 199.041 163.817 199.467 163.069 199.808C162.437 200.097 161.747 200.241 161.148 200.589C159.869 201.336 158.419 201.749 156.964 202.028C153.848 202.628 150.538 202.465 147.543 201.378C144.304 200.204 141.784 197.909 140.37 194.738C139.418 192.605 138.739 190.754 138.682 188.354C138.642 186.75 139.117 185.221 139.804 183.793C140.499 182.346 141.312 181.139 142.478 180.03C143.302 179.246 144.249 178.679 145.293 178.233C146.228 177.836 146.893 177.149 147.882 176.842C150.192 176.128 152.662 176.264 155.051 176.262C157.898 176.262 160.95 176.74 163.436 178.2C165.575 179.455 167.225 181.356 168.698 183.321C171.12 186.549 172.455 190.841 169.813 194.386C168.587 196.039 167.007 197.557 165.233 198.619Z" fill="#E72A47"/>
<path d="M167.551 167.308C166.074 164.465 168.426 160.365 171.923 161.349C174.223 162.005 175.096 163.917 174.767 166.05C176.626 165.886 178.869 167.417 178.65 169.441C178.212 172.831 174.004 174.033 171.433 172.503C171.049 172.283 171.16 172.12 170.666 172.065C169.683 171.901 168.861 172.832 167.714 172.338C164.764 171.19 165.692 167.856 167.059 165.996" fill="#14893B"/>
<path d="M170.776 177.314C171.075 175.952 171.211 175.195 172.328 174.337C173.136 173.72 174.028 173.199 175.032 172.992C176.258 172.738 177.826 172.753 178.962 173.326C180.684 174.193 181.72 176.031 181.215 177.962C182.327 177.638 183.083 177.253 184.285 177.636C186.306 178.279 187.592 180.507 187.896 182.512C188.35 185.482 187.091 187.525 184.389 188.718C183.645 189.046 182.792 189.313 182.019 188.9C181.382 188.562 181.086 187.814 180.604 187.317C180.279 187.497 180.176 188.024 180.04 188.324C179.371 189.795 178.515 191.241 176.912 191.796C175.582 192.255 173.838 192.334 172.614 191.503C171.824 190.968 171.643 190.001 171.365 189.159C169.943 190.398 168.905 191.651 166.804 191.654C165.241 191.656 163.694 190.191 163.561 188.596C162.551 188.75 161.102 189.271 160.288 188.325C159.309 187.186 159.899 184.71 160.276 183.461C160.989 181.109 162.835 179.944 165.214 179.646C166.362 179.501 168.276 179.351 169.297 180.05C168.272 177.77 171.648 175.946 173.513 176.058" fill="#036335"/>
<path d="M159.077 169.168C159.624 167.473 160.498 165.395 162.413 164.901C163.45 164.684 164.38 165.229 165.255 165.721C165.364 164.299 167.17 163.369 168.427 163.205C170.233 162.934 172.475 163.916 173.567 165.393C175.208 167.69 174.498 170.369 172.911 172.391C173.731 172.665 174.334 172.555 175.099 173.047C175.918 173.594 176.684 174.414 177.12 175.289C178.16 177.366 176.957 179.389 175.153 180.537C173.076 181.903 170.561 182.889 167.991 182.45C166.788 182.231 165.858 181.795 165.095 180.92C164.767 180.537 164.437 180.209 164.217 179.717C163.999 179.334 164.056 178.733 163.835 178.404C163.78 178.348 163.78 178.133 163.78 178.077C163.234 177.969 162.906 178.514 162.467 178.788C161.92 179.059 161.32 179.278 160.717 179.278C159.352 179.334 158.15 178.461 157.437 177.311C156.506 175.779 156.29 173.756 156.728 172.061C157 170.969 157.657 168.235 158.803 167.688" fill="#8FB829"/>
<path d="M156.397 183.267C156.18 184.923 156.125 187.171 157.71 188.12C158.365 188.533 159.188 188.533 159.898 188.355C160.609 188.12 160.828 187.467 161.374 187.171C162.358 186.757 163.344 187.467 164.491 187.054C165.422 186.757 165.912 186.166 166.296 185.218C166.404 184.923 166.404 184.213 166.623 183.976C167.39 183.149 168.372 183.445 168.536 181.788C168.7 180.133 167.224 178.475 165.693 178.475C165.31 178.536 164.982 178.772 164.656 178.772C164.107 178.772 163.451 178.417 162.906 178.357C160.828 178.121 159.133 179.128 157.766 180.842" fill="#14893B"/>
<path d="M151.304 164.935C150.087 165.521 149.075 166.413 148.533 167.695C148.232 168.402 148.14 169.169 148.13 169.931C148.123 170.54 148.416 171.519 148.242 172.087C148.001 172.888 146.564 172.341 145.886 172.454C145.064 172.593 144.297 173.273 143.81 173.927C142.519 175.644 142.409 178.099 143.036 180.091C143.356 181.109 143.892 182.076 144.674 182.814C144.903 183.031 147.25 184.591 147.488 184.093C146.941 185.239 148.254 187.263 149.127 188.083C150.167 189.013 151.534 189.449 152.955 189.285C155.799 188.902 158.86 186.497 159.188 183.489C159.952 183.382 160.992 184.145 161.812 184.257C162.522 184.312 163.234 184.312 163.89 184.093C165.582 183.437 166.35 181.249 166.678 179.609C167.332 176.329 164.162 172.775 160.773 173.595C162.194 172.228 161.812 169.988 161.21 168.347C160.499 166.269 159.57 164.355 157.221 164.081C155.392 163.869 153.122 164.06 151.304 164.935Z" fill="#036335"/>
<path d="M222.116 197.973C220.662 197.669 219.153 197.143 217.853 196.422C216.088 195.442 216.194 193.408 216.807 191.676C217.381 190.053 217.771 188.365 218.358 186.744C219.532 183.504 220.989 180.401 222.679 177.395C224.792 173.589 226.952 169.832 229.444 166.26C232.356 162.08 235.411 157.664 239.497 154.563C241.988 152.684 244.665 151.838 247.768 152.262C250.68 152.637 253.358 154.422 253.734 157.571C254.014 159.873 253.31 161.986 252.7 164.194C252.278 165.885 251.806 167.577 251.244 169.221C248.708 176.454 245.138 183.219 241.942 190.171C240.908 192.38 240.157 194.729 238.84 196.796C237.526 198.816 234.988 198.721 232.688 198.721C229.21 198.723 225.593 198.769 222.116 197.973Z" fill="#DA9B3A"/>
<path d="M240.346 168.408C242.626 168.091 245.481 167.669 247.792 168.294C248.485 168.482 249.589 168.886 249.292 169.806C248.928 171.054 246.487 171.644 245.426 171.996C240.701 173.659 234.969 174.925 229.917 174.399C229.227 174.312 227.743 174.208 227.38 173.476C227.023 172.764 229.049 171.501 229.633 171.191C231.039 170.447 232.51 169.961 234.056 169.587C236.134 169.09 238.23 168.687 240.346 168.408Z" fill="#F5CA83"/>
<path d="M235.555 180.012C237.834 179.694 240.688 179.272 243.001 179.897C243.694 180.085 244.799 180.487 244.501 181.409C244.136 182.657 241.693 183.248 240.636 183.6C235.91 185.262 230.178 186.528 225.126 186.003C224.435 185.916 222.953 185.809 222.59 185.08C222.232 184.368 224.258 183.102 224.84 182.795C226.246 182.049 227.718 181.563 229.265 181.191C231.341 180.693 233.44 180.291 235.555 180.012Z" fill="#F5CA83"/>
<path d="M204.551 139.849L200.221 139.71L199.483 140.734L199.433 142.285L198.993 142.835L198.935 144.632L199.544 145.391L199.106 159.16C199.106 159.16 199.106 163.566 197.61 165.07C196.118 166.574 191.071 170.078 190.837 176.31C190.603 182.541 190.493 187.015 190.493 187.015L202.818 187.41L202.45 187.398L214.775 187.794C214.775 187.794 214.954 183.321 215.118 177.089C215.284 170.855 210.471 167.033 209.076 165.439C207.682 163.844 207.964 159.446 207.964 159.446L208.404 145.677L209.061 144.957L209.119 143.16L208.716 142.585L208.766 141.033L208.095 139.964L203.764 139.824L204.551 139.849Z" fill="#040000"/>
<path d="M207.964 159.444L208.404 145.676L209.061 144.956L209.119 143.161L208.715 142.584L208.764 141.033L208.093 139.963L203.762 139.824L204.551 139.849L200.221 139.711L199.483 140.736L199.433 142.286L198.993 142.836L198.935 144.633L199.546 145.391L199.106 159.161" fill="#951E25"/>
<path d="M207.013 157.193C206.984 158.128 206.201 158.859 205.268 158.831L204.986 158.82C204.053 158.791 203.322 158.007 203.35 157.075L203.825 142.286C203.853 141.351 204.636 140.62 205.567 140.65L205.849 140.658C206.783 140.689 207.515 141.471 207.486 142.402L207.013 157.193Z" fill="#661115"/>
<path d="M190.178 195.079L214.494 195.857L214.812 185.926L190.496 185.148L190.178 195.079Z" fill="#D0C8BD"/>
<path opacity="0.4" d="M196.186 189.277C196.156 190.212 195.375 190.943 194.442 190.915L194.16 190.904C193.226 190.876 192.494 190.093 192.523 189.16L192.996 174.369C193.026 173.437 193.809 172.703 194.741 172.734L195.023 172.744C195.957 172.772 196.69 173.554 196.658 174.488L196.186 189.277Z" fill="white"/>
<path d="M170.872 177.555V195.029H186.176L192.426 166.469H180.305L170.872 177.555Z" fill="#F4F4F2"/>
<path d="M180.305 163.932H192.753V166.656L202.054 177.319V195.029H183.548V177.555L192.049 166.656L180.305 166.607V163.932Z" fill="#D2191A"/>
<path d="M209.621 167.971L205.04 191.742L223.644 195.744L227.766 171.414L222.447 170.354C222.447 170.354 222.384 172.293 220.227 171.871C218.431 171.518 218.977 169.793 218.977 169.793L209.621 167.971Z" fill="#F3CC5B"/>
<path d="M212.88 174.901C213.648 174.901 214.271 174.278 214.271 173.51C214.271 172.742 213.648 172.119 212.88 172.119C212.112 172.119 211.489 172.742 211.489 173.51C211.489 174.278 212.112 174.901 212.88 174.901Z" fill="#F0BA42"/>
<path d="M214.27 184.115C215.039 184.115 215.662 183.492 215.662 182.723C215.662 181.954 215.039 181.331 214.27 181.331C213.501 181.331 212.878 181.954 212.878 182.723C212.878 183.492 213.501 184.115 214.27 184.115Z" fill="#F0BA42"/>
<path d="M218.49 191.972C219.73 191.972 220.736 190.967 220.736 189.726C220.736 188.486 219.73 187.48 218.49 187.48C217.25 187.48 216.244 188.486 216.244 189.726C216.244 190.967 217.25 191.972 218.49 191.972Z" fill="#F0BA42"/>
<path d="M221.564 181.104C222.576 181.104 223.397 180.284 223.397 179.271C223.397 178.259 222.576 177.438 221.564 177.438C220.552 177.438 219.731 178.259 219.731 179.271C219.731 180.284 220.552 181.104 221.564 181.104Z" fill="#F0BA42"/>
<path d="M208.562 190.791C209.574 190.791 210.394 189.971 210.394 188.959C210.394 187.947 209.574 187.127 208.562 187.127C207.55 187.127 206.73 187.947 206.73 188.959C206.73 189.971 207.55 190.791 208.562 190.791Z" fill="#F0BA42"/>
<path d="M152.589 230.693C152.54 230.478 152.488 230.265 152.437 230.05C151.151 224.867 148.858 219.833 146.575 215.021C145.762 213.302 144.27 212.122 143.489 210.386C142.358 207.869 141.383 205.244 140.482 202.637C140.273 202.032 139.161 200.052 139.409 199.403C139.548 199.036 140.466 198.874 140.783 198.779C149.15 196.278 157.798 194.881 166.331 192.925C169.715 192.15 173.168 190.6 176.69 190.529C182.329 190.46 188.106 191.164 193.813 191.377C202.199 191.729 210.513 191.869 218.898 192.361C225.241 192.715 231.513 193.136 237.854 193.278C239.474 193.278 241.096 193.348 242.646 193.348C244.197 193.348 244.268 193.56 244.056 195.109C243.702 197.788 242.785 200.255 242.503 202.932C242.151 206.807 242.646 210.894 241.73 214.699C241.306 216.32 240.814 217.94 240.249 219.492C239.686 221.043 239.897 221.677 240.532 223.225C242.011 227.101 243.915 230.835 245.182 234.781C246.098 237.461 247.578 240.068 247.294 242.886C246.872 247.746 247.224 252.892 247.577 257.753C247.647 258.738 248.14 260.008 247.365 260.57C246.661 261.064 244.687 260.853 243.913 260.924C242.715 260.994 241.517 261.136 240.318 261.205C237.218 261.347 234.118 261.486 231.088 261.628C223.407 261.982 215.868 262.333 208.257 262.403C198.111 262.472 188.034 262.192 177.957 263.177C171.475 263.812 165.203 265.151 158.649 264.94C156.323 264.869 154.139 264.304 151.813 263.742C151.039 263.529 148.713 263.249 148.219 262.472C147.937 261.98 148.288 261.134 148.361 260.64C148.783 258.667 149.346 256.695 149.77 254.722C150.899 249.507 151.883 244.291 152.941 239.076C153.223 237.386 153.787 235.554 153.434 233.863C153.223 232.807 152.871 231.751 152.589 230.693Z" fill="#F4CCA4"/>
<path d="M174.666 191.655C174.758 190.048 174.874 188.438 175.057 186.839C175.077 186.651 175.1 186.466 175.122 186.278C175.202 185.618 175.027 186.947 175.118 186.292C175.169 185.928 175.226 185.564 175.284 185.204C175.412 184.437 175.565 183.679 175.741 182.925C175.9 182.252 176.088 181.587 176.298 180.928C176.402 180.608 176.517 180.289 176.635 179.974C176.694 179.818 176.755 179.663 176.818 179.507C177.006 179.04 176.538 180.138 176.863 179.422C177.132 178.829 177.443 178.255 177.779 177.695C177.946 177.421 178.127 177.152 178.313 176.888C178.405 176.755 178.501 176.626 178.597 176.497C178.064 177.21 178.538 176.587 178.663 176.439C179.086 175.939 179.554 175.48 180.044 175.048C180.171 174.939 180.3 174.833 180.428 174.728C180.902 174.343 179.901 175.124 180.396 174.759C180.72 174.52 181.058 174.302 181.404 174.091C181.71 173.904 182.026 173.735 182.343 173.57C182.531 173.473 183.638 172.982 182.856 173.309C183.628 172.985 184.427 172.731 185.236 172.51C186.664 172.121 188.122 171.852 189.584 171.641C188.694 171.77 189.967 171.6 190.186 171.575C190.581 171.53 190.975 171.494 191.373 171.461C192.25 171.387 193.13 171.34 194.011 171.315C195.722 171.266 197.437 171.325 199.139 171.493C199.341 171.514 199.54 171.537 199.742 171.559C200.441 171.641 199.097 171.465 199.789 171.563C200.182 171.618 200.572 171.686 200.964 171.756C201.778 171.905 202.588 172.1 203.385 172.332C203.74 172.434 204.088 172.551 204.438 172.672C204.608 172.733 204.776 172.797 204.943 172.86C205.541 173.09 204.344 172.596 204.922 172.848C205.607 173.145 206.26 173.504 206.883 173.914C207.029 174.012 207.175 174.116 207.32 174.222C206.674 173.75 207.172 174.112 207.301 174.221C207.57 174.443 207.823 174.684 208.072 174.932C208.319 175.178 208.55 175.438 208.775 175.703C208.882 175.832 209.255 176.328 208.763 175.68C208.906 175.867 209.037 176.059 209.168 176.25C209.564 176.836 209.907 177.457 210.22 178.09C210.298 178.252 210.373 178.414 210.448 178.576C210.716 179.161 210.204 177.971 210.448 178.565C210.61 178.959 210.755 179.36 210.888 179.762C211.393 181.235 211.727 182.762 211.979 184.295C212.014 184.512 212.184 185.759 212.067 184.856C212.116 185.231 212.157 185.606 212.196 185.981C212.28 186.789 212.34 187.595 212.385 188.405C212.472 189.883 212.5 191.362 212.509 192.843C212.511 193.172 212.512 193.503 212.512 193.833C212.512 195.37 213.793 196.65 215.33 196.65C216.866 196.65 218.149 195.37 218.149 193.833C218.145 187.448 217.87 180.729 214.925 174.925C213.447 172.009 211.039 169.54 208.082 168.124C204.841 166.572 201.274 165.968 197.713 165.734C194.188 165.507 190.64 165.782 187.156 166.345C183.999 166.853 180.827 167.749 178.118 169.495C175.497 171.184 173.406 173.605 172.065 176.418C170.632 179.423 169.963 182.618 169.535 185.9C169.286 187.806 169.14 189.726 169.032 191.645C168.946 193.18 170.38 194.463 171.85 194.463C173.449 194.473 174.58 193.189 174.666 191.655Z" fill="#F4CCA4"/>
<path d="M201.741 213.275C202.831 211.913 207.733 206.057 210.321 207.146C212.772 208.236 210.184 210.417 214.134 209.872C217.947 209.463 223.259 208.101 226.118 211.506C231.838 218.043 212.772 224.986 208.005 224.986C206.78 224.986 205.555 224.85 204.328 224.85" fill="#ECAD89"/>
<path d="M119.792 168.185C123.109 174.206 128.498 179.991 130.97 186.349C132.199 189.597 133.868 192.471 135.381 195.605C137.605 200.03 139.137 204.533 141.507 208.833C142.806 211.267 143.968 213.687 145.695 215.884C146.926 217.491 148.451 218.85 147.454 220.952C145.98 223.835 141.488 226.872 139.145 228.723C137.39 230.077 134.92 233.423 132.4 232.527C130.806 231.982 129.803 229.3 129.103 227.877C127.207 224.437 125.729 220.896 124.4 217.23C121.581 208.519 119.295 199.99 118.581 190.636C118.168 185.817 118.141 181.304 118.822 176.443C119.186 173.738 119.835 170.923 119.792 168.185Z" fill="#E13E36"/>
<path d="M130.453 245.256C127.189 243.141 124.915 239.994 122.14 236.494C119.311 232.928 117.624 228.432 115.225 224.556C112.097 219.499 108.812 214.618 105.778 209.518C104.146 206.776 102.807 203.662 100.955 201.072C99.46 198.979 98.405 197.676 97.989 194.953C97.143 189.441 98.951 183.846 101.507 179.016C103.341 175.551 105.964 171.729 108.864 169.056C110.302 167.731 114.226 165.854 114.907 164.261C116.74 164.959 119.401 166.001 120.603 167.614C121.736 169.137 122.332 171.727 123.19 173.473C127.66 182.567 129.088 192.502 134.372 201.221C136.898 205.386 138.155 210.52 140.981 214.508C143.787 218.465 148.59 217.52 152.733 217.053C160.354 216.194 167.946 215.824 175.539 214.559C182.723 213.363 189.903 211.928 197.036 210.625C200.099 210.064 202.237 209.03 203.983 211.941C206.775 216.6 211.2 225.225 204.438 227.989C196.444 231.253 188.063 234.31 179.698 236.467C167.891 239.508 156.9 248.358 144.476 248.369C141.618 248.372 138.584 248.082 135.823 247.469C133.716 247.004 131.976 246.243 130.453 245.256Z" fill="#E9483A"/>
<path d="M57.542 90.0642C59.031 89.0392 60.891 88.3452 62.453 87.7532C64.962 86.8032 67.678 86.3462 70.275 87.1992C73.381 88.2222 76.0731 90.0182 78.9481 91.5662C82.2781 93.3592 86.036 94.2712 89.709 94.9032C94.624 95.7492 99.145 94.2082 103.884 93.1532C108.624 92.0992 113.44 90.9582 118.319 91.1732C121.19 91.3002 123.978 91.6352 126.145 93.5352C126.413 95.0052 125.429 95.0392 124.846 95.2402C117.669 97.7062 113.402 105.298 112.471 112.771C112.065 116.045 112.186 119.806 113.287 123.089C113.833 124.718 114.622 126.23 115.707 127.509C119.227 131.655 122.518 135.95 128.022 137.104C131.519 137.835 132.427 135.212 133.028 132.266C133.266 131.097 133.737 129.695 133.546 128.481C133.368 127.349 132.491 126.787 131.653 126.119C128.998 124.01 126.905 117.242 131.882 116.533C133.569 116.292 135.238 116.874 136.621 117.801C137.552 118.425 138.067 117.805 139.128 117.634C142.606 117.074 147.719 115.367 148.733 115.003C149.888 114.588 151.017 114.089 152.19 113.722C154.846 112.891 156.4 111.571 158.034 109.293C159.524 107.215 160.54 104.628 158.677 102.414C156.239 99.5132 152.879 97.4512 149.352 96.3392C145.86 95.2372 142.331 95.0032 138.733 94.6752C135.711 94.3982 132.297 95.2812 129.769 93.6092C127.248 91.9422 128.13 88.1702 127.194 85.4032C123.382 74.1692 114.776 67.3772 102.532 66.4792C98.492 66.1832 94.389 66.2102 90.428 67.1632C88.855 67.5402 87.307 67.7242 85.8 68.3232C84.092 69.0062 82.329 69.4932 80.537 69.8802C78.946 70.2202 77.3781 70.5442 75.8101 70.9872C72.1511 72.0232 68.325 71.8002 64.583 71.8202C60.649 71.8402 56.927 71.2572 53.181 70.0382C48.625 68.5552 44.743 65.6972 40.424 63.6462C36.5 61.7812 32.653 60.0832 28.306 59.6532C24.604 59.2862 20.524 60.1742 17.191 61.8742C13.425 63.7942 10.092 66.2312 7.11804 69.3122C4.16104 72.3732 2.49403 76.2742 1.06103 80.2602C-0.428968 84.4022 -0.460001 88.6843 1.677 92.5713C4.014 96.8193 8.82 99.5512 13.091 101.141C18.373 103.106 23.566 105.24 29.282 104.899C31.808 104.751 34.483 104.067 36.848 103.162C39.222 102.256 41.862 101.496 44.098 100.269C48.315 97.9562 52.911 94.8062 56.199 91.2132C56.589 90.7872 57.044 90.4062 57.542 90.0642Z" fill="#1D1F46"/>
<path d="M459.749 175.826C458.843 180.269 449.294 218.646 447.561 218.646C437.69 218.65 431.956 202.974 429.596 194.125C424.438 174.788 421.104 155.021 413.608 136.347C404.999 114.897 400.483 87.7281 383.936 71.8951C375.04 63.3831 364.844 54.5131 353.008 51.6471C343.371 49.3151 333.615 50.6691 324.313 53.9471C315.358 57.1001 306.848 63.7841 297.737 65.9831C285.479 68.9421 269.017 55.3191 267.416 42.5291C266.245 33.1761 264.695 20.4021 266.603 10.9481C269.282 -2.33589 290.707 0.192132 300.349 0.192132C341.054 2.72313 382.296 5.25513 422.468 12.2131C438.001 15.3771 485.671 24.8651 486.206 33.7231C486.743 38.1481 466.177 142.931 459.749 175.826Z" fill="#F9D9A5"/>
</svg>
