<svg width="323" height="397" viewBox="0 0 323 397" fill="none" xmlns="http://www.w3.org/2000/svg">
<path d="M322.763 314.927C324.909 270.505 289.222 232.681 243.054 230.452C196.887 228.223 157.721 262.431 155.576 306.854C153.431 351.28 189.12 389.101 235.286 391.331C281.454 393.561 320.62 359.353 322.763 314.927Z" fill="#C2CCD4"/>
<path d="M143.05 264.56C133.391 262.081 124.213 257.944 114.494 255.611C110.473 254.646 109.004 255.822 108.454 259.885C107.685 265.573 105.603 271.056 106.015 276.933C112.13 298.955 118.568 320.891 124.155 343.06C125.714 349.239 127.745 351.989 133.771 350.498C139.98 349.045 146.275 348.224 152.613 347.75C156.259 347.289 157.396 345.749 156.587 341.513C152.046 317.745 147.868 293.906 143.588 270.084C143.259 268.267 142.493 266.478 143.05 264.56Z" fill="#673A1B"/>
<path d="M254.04 266.062C256.593 263.966 259.022 261.702 261.317 259.285C265.182 255.217 265.174 251.426 264.649 245.818C264.155 240.561 262.182 234.826 257.518 232.156C251.897 228.937 244.989 228.002 238.67 228.295C230.203 228.688 221.732 229.309 213.258 229.086C205.286 228.875 197.467 226.529 189.69 224.773C183.512 223.379 183.515 223.362 186.792 217.632C184.674 217.389 182.556 217.008 180.427 216.924C167.204 216.396 153.98 215.934 140.754 215.449C126.298 216.089 111.858 215.242 97.4199 214.783C81.1799 214.266 74.109 220.149 71.617 237.09C70.878 242.11 69.9969 247.121 69.6109 252.17C68.2719 269.741 67.127 287.324 65.904 304.904C65.315 317.434 65.078 329.998 63.981 342.478C63.46 348.394 67.252 347.918 70.352 349.021C77.266 350.591 84.1749 352.167 91.0869 353.734C94.3719 354.662 94.7699 352.674 95.1599 349.873C98.3769 326.818 107.382 276.625 108.452 270.99C110 262.83 114.707 258.474 120.671 260.238C130.266 263.076 183.375 278.013 188.084 279.156C216.529 286.058 225.722 280.932 231.375 278.939C239.597 276.04 247.245 271.648 254.04 266.062Z" fill="#7E4F22"/>
<path d="M69.462 369.413C68.018 366.475 65.842 365.753 62.774 366.444C53.835 368.452 44.811 370.062 35.905 372.201C32.404 373.038 29.193 371.57 25.76 371.876C22.546 372.154 20.026 372.534 19.43 376.356C18.753 380.688 22.039 380.62 24.566 381.198C42.486 385.291 60.492 389.002 78.295 393.586C83.983 395.047 86.3731 392.927 87.3951 388.069C88.2941 383.781 89.128 379.15 85.679 375.349C76.614 377.389 71.643 375.57 69.462 369.413Z" fill="#E4E4E4"/>
<path d="M136.557 360.318C134.484 359.54 132.756 360.105 131.119 361.617C124.265 367.92 117.163 373.941 110.573 380.531C107.567 383.541 103.669 384.426 100.482 386.833C98.172 388.576 96.09 390.004 97.458 393.616C98.953 397.567 101.529 396.404 104.095 395.539C121.65 389.615 139.148 383.504 156.775 377.837C161.583 376.289 163.342 373.795 161.878 368.9C160.478 364.233 159.187 359.376 153.569 358.296C152.256 360.985 149.906 362.671 147.37 363.275C143.469 364.202 138.835 366.512 136.557 360.318Z" fill="#E4E4E4"/>
<path d="M69.4619 369.413C71.6429 375.569 76.6119 377.39 85.6799 375.351C87.4859 368.145 89.2869 360.94 91.0909 353.735C84.1769 352.168 77.2679 350.592 70.3539 349.022C70.0589 355.82 69.7579 362.617 69.4619 369.413Z" fill="#ECAD89"/>
<path d="M136.557 360.318C138.835 366.512 143.469 364.203 147.37 363.275C149.906 362.671 152.258 360.986 153.569 358.296C153.255 354.778 152.934 351.266 152.618 347.753C146.275 348.225 139.98 349.046 133.771 350.499C134.7 353.772 135.63 357.044 136.557 360.318Z" fill="#ECAD89"/>
<path d="M175.601 118.99C167.956 139.654 159.476 160.277 160.655 183.142C161.74 208.048 195.516 201.281 211.101 195.929C233.497 187.999 244.492 149.084 239.935 126.925C235.601 105.946 203.548 111.634 189.7 115.611" fill="#9AD4D7"/>
<path d="M232.413 122.749C232.249 122.56 232.087 122.37 231.921 122.183C228.743 118.544 225.316 115.136 221.663 112.023C219.786 110.424 217.544 109.73 218.212 107.031C218.995 103.883 220.169 100.818 221.679 97.9773C223.79 94.0053 226.552 91.0903 229.421 87.7223C230.941 85.9373 232.624 84.4023 234.234 82.7153C236.765 80.0693 240.197 78.4333 243.627 77.4693C247.916 76.2633 254.533 79.1773 258.693 80.6393C263.765 82.4213 268.677 84.7033 273.33 87.4723C282.547 92.9543 290.732 100.368 297.031 109.322C312.613 131.482 316.109 159.062 310.47 185.144C307.366 198.948 301.988 212.29 292.95 222.864C284.268 232.935 271.8 239.544 259.604 243.754C242.733 249.619 222.499 249.974 205.107 245.649C191.614 242.379 178.374 237.228 167.614 228.068C164.52 225.431 161.615 222.595 158.857 219.573C156.897 217.424 153.878 214.936 152.665 212.188C151.352 209.227 153.276 205.883 154.524 203.266C155.695 200.817 156.774 197.391 159.121 195.895C160.499 195.018 162.362 195.866 163.819 196.293C167.095 197.256 170.263 198.552 173.574 199.545C176.86 200.529 180.061 201.623 183.45 202.164C188.199 202.924 192.772 202.336 197.501 202.627C202.075 202.906 206.554 202.766 211.135 202.053C222.957 200.217 234.84 195.837 242.772 185.982C251.522 175.114 252.323 161.025 247.698 148.048C244.35 138.653 238.802 130.166 232.413 122.749Z" fill="#9AD4D7"/>
<path d="M218.802 135.118C220.591 130.014 222.351 124.897 224.32 119.866C225.509 116.82 226.775 113.805 228.164 110.852C229.459 108.106 230.752 104.979 232.629 102.616C234.32 100.487 235.067 97.4484 236.344 94.9924C237.807 92.1754 239.483 89.4704 241.364 86.9364C243.44 84.1414 245.343 81.3134 247.657 78.7604C248.487 77.8464 249.968 76.3134 251.27 76.3234C252.432 76.3344 253.862 77.2024 254.92 77.6444C256.777 78.4194 258.615 79.2454 260.404 80.1834C261.996 81.0144 265.181 81.7064 264.842 83.8444C264.561 85.6284 261.188 88.7224 260.113 90.2324C257.092 94.4764 254.238 98.8694 251.822 103.525C246.892 113.021 244.105 123.554 245.021 134.416C245.621 141.484 248.916 147.76 249.96 154.662C250.3 156.914 249.731 159.119 249.983 161.383C250.387 165.005 251.428 168.666 252.217 172.216C255.408 186.576 284.401 203.913 288.127 218.127C291.125 229.563 276.971 257.609 276.971 257.609H192.181C192.181 257.609 171.355 253.606 169.532 240.875C167.518 227.445 178.346 199.709 186.914 189.802C192.935 182.753 200.428 177.158 205.617 169.149C212.671 158.706 214.765 146.633 218.802 135.118Z" fill="#E9483A"/>
<path d="M166.829 123.297C168.751 118.788 170.816 113.881 173.183 109.636C174.979 106.419 177.436 101.238 175.772 97.4493C173.248 97.8523 169.621 99.8083 167.275 100.991C160.363 104.474 155.63 110.005 149.605 114.66C143.874 119.089 138.549 124.225 132.702 128.587C124.263 134.737 114.768 141.056 104.483 141.851C99.027 142.232 92.371 141.456 87.48 143.183C85.143 143.941 85.167 143.503 84.646 145.67C84.306 148.504 85.953 153.63 86.657 156.517C88.024 163.165 91.103 164.417 97.241 167.36C104.613 170.803 111.679 171.818 119.689 170.47C129.585 168.996 142.257 166.349 150.885 160.646C154.554 158.201 156.405 154.347 157.65 150.025C160.566 141.181 163.076 132.098 166.829 123.297Z" fill="#9AD4D7"/>
<path d="M140.246 232.69C136.616 230.117 134.278 228.313 131.96 224.179C129.868 220.448 128.589 216.339 128.059 212.052C127.255 205.572 129.087 199.605 130.959 193.474C132.855 187.269 134.639 181.212 137.851 175.564C139.866 172.021 142.122 167.876 142.809 163.773C144.487 153.737 147.669 144.96 151.22 135.441C153.281 129.919 154.523 124.157 156.378 118.575C157.117 116.351 157.845 113.93 158.816 111.814C160.69 107.74 165.75 101.925 169.443 99.8943C173 97.9353 176.376 104.093 179.507 106.192C179.648 108.81 180.363 110.629 179.987 113.38C179.631 115.986 179.278 118.489 179.061 121.111C178.533 127.46 176.329 133.611 174.599 139.68C170.841 152.869 170.543 165.369 174.106 178.709C175.391 183.512 177.783 188.255 177.403 193.353C176.906 200.031 174.307 206.692 171.955 212.851C169.27 219.876 166.745 231.985 160.249 236.281C153.387 240.816 146.279 236.988 140.246 232.69Z" fill="#E9483A"/>
<path d="M246.727 62.1404C254.012 64.5764 257.915 69.0824 257.373 77.3284C256.922 83.5094 254.756 87.7094 249.367 90.5374C246.006 92.0904 243.359 92.4744 239.867 93.3304C234.556 94.4414 230.459 101.301 227.308 105.449C217.685 118.06 201.589 121.382 186.897 122.705C182.466 122.996 177.713 124.822 173.328 123.286C171.291 122.572 169.765 121.965 169.872 119.394C169.951 117.375 170.963 115.538 171.1 113.54C171.199 112.144 171.098 110.632 170.812 109.263C170.577 108.128 170.295 107.273 170.516 106.108C170.74 104.921 170.641 104.013 170.408 102.826C170.117 101.351 170.016 99.8444 169.876 98.3474C169.607 95.5424 169.135 92.7814 169.027 89.9564C168.955 88.0024 168.877 86.0304 168.896 84.0804C168.94 79.9514 167.46 76.1284 167.083 72.0874C165.412 54.2304 170.195 39.7964 170.613 38.4664C172.376 32.8644 176.427 27.2514 179.84 22.5614C185.281 15.0814 192.844 11.4994 201.724 11.4324C212.245 11.4474 226.784 13.3904 235.011 20.3554C240.538 25.2894 243.517 31.9884 244.816 39.4644C245.47 43.1164 245.492 46.2204 244.677 49.6264C243.878 52.6884 242.603 55.3804 243.601 58.7064" fill="#ECAD89"/>
<path d="M254.739 48.8124C261.964 53.7754 263.768 62.1384 256.059 67.7224C251.08 71.1484 245.348 69.4514 242.846 76.2174C240.821 82.0894 243.782 86.8634 244.86 91.9734C246.583 102.171 240.475 111.054 234.454 118.102C224.72 129.558 208.073 138.828 193.62 138.555C187.041 138.681 179.648 137.388 173.673 133.868C171.322 132.741 168.921 130.973 167.379 128.781C166.694 127.813 165.803 126.997 165.16 126.028C164.316 124.745 164.265 122.918 164.277 121.415C164.291 119.408 164.827 118.122 165.71 116.462C166.358 115.244 166.909 113.343 166.792 111.918C166.709 110.897 166.443 109.87 166.391 108.819C165.877 98.8954 173.711 96.4964 180.81 95.5104C187.873 94.4894 197.441 93.7094 206.576 97.6184C213.071 99.3264 221.051 104.554 226.637 97.4834C237.373 83.3204 214.305 70.2034 220.209 56.2544C224.147 46.8034 239.063 46.6394 237.484 33.2314C235.89 20.2834 222.08 25.0984 213.644 27.4284C204.769 29.7374 191.501 32.2824 186.803 20.0944C180.567 3.23536 203.452 1.17636 213.117 0.74536C229.801 0.21036 243.23 3.64836 252.156 19.2674C257.418 28.7244 263.469 40.0624 254.302 48.7884" fill="white"/>
<path d="M192.961 55.6254C201.25 56.0444 207.62 63.9684 207.188 73.3214C206.758 82.6754 199.69 89.9174 191.403 89.4984C183.116 89.0794 176.745 81.1554 177.174 71.8024C177.607 62.4484 184.674 55.2044 192.961 55.6254ZM179.677 71.9294C179.317 79.7244 184.625 86.3274 191.531 86.6764C198.436 87.0274 204.329 80.9904 204.686 73.1954C205.045 65.4004 199.736 58.7974 192.832 58.4474C185.923 58.0974 180.034 64.1344 179.677 71.9294Z" fill="#172446"/>
<path d="M165.237 58.0143C170.352 58.2733 174.206 64.9113 173.842 72.8393C173.476 80.7693 169.03 86.9873 163.915 86.7283C158.797 86.4693 154.942 79.8313 155.309 71.9023C155.673 63.9743 160.12 57.7543 165.237 58.0143ZM156.852 71.9803C156.547 78.5883 159.758 84.1213 164.026 84.3373C168.29 84.5523 171.991 79.3703 172.297 72.7623C172.603 66.1543 169.392 60.6223 165.13 60.4063C160.861 60.1903 157.155 65.3713 156.852 71.9803Z" fill="#172446"/>
<path d="M173.767 73.8104L178.224 74.0364L178.324 71.8604L173.867 71.6354L173.767 73.8104Z" fill="#172446"/>
<path d="M244.079 64.0724C247.423 62.8634 250.272 61.6294 253.104 64.3574C255.159 66.1854 256.522 68.6674 257.051 71.4514C258.135 76.5044 257.024 82.8244 253.395 86.6054C250.286 89.8944 242.739 93.1304 238.592 90.3344C234.61 87.5484 236.16 82.4574 238.6 79.4784C242.289 74.3234 241.573 72.0464 240.858 66.1504L244.079 64.0724Z" fill="#ECAD89"/>
<path d="M246.727 63.1294L205.561 67.6384L205.91 74.3484L240.876 66.9274L246.727 63.1294Z" fill="#172446"/>
<path d="M249.296 124.591C249.821 121.468 250.526 118.371 251.325 115.31C252.413 111.159 253.708 107.09 254.53 102.892C255.262 99.1504 257.96 96.3284 260.608 93.7734C261.762 92.6604 262.96 91.5544 264.139 90.4794C264.516 90.1384 264.955 89.0784 265.244 88.8694C268.035 88.3264 272.092 87.4424 274.822 88.4014C277.728 89.4224 280.81 92.4484 283.197 94.4164C288.404 98.7184 293.092 103.725 297.027 109.322C312.609 131.482 316.105 159.062 310.466 185.144C307.364 198.948 301.984 212.29 292.946 222.864C284.264 232.935 271.796 239.544 259.6 243.754C242.729 249.619 222.495 249.974 205.103 245.649C191.611 242.379 178.37 237.228 167.611 228.068C164.516 225.431 161.611 222.595 158.853 219.573C156.893 217.424 153.874 214.936 152.661 212.188C151.348 209.227 153.272 205.883 154.52 203.266C155.691 200.817 156.77 197.391 159.118 195.895C160.495 195.018 162.358 195.866 163.815 196.293C167.091 197.256 170.259 198.552 173.57 199.545C176.856 200.529 180.057 201.623 183.447 202.164C188.195 202.924 192.768 202.336 197.497 202.627C202.072 202.906 206.55 202.766 211.131 202.053C222.953 200.217 234.836 195.837 242.768 185.982C249.077 178.15 253.163 164.354 251.202 154.154C250.499 150.483 249.407 146.893 248.837 143.081C247.911 136.888 248.266 130.693 249.296 124.591Z" fill="#27ABBB"/>
<path d="M52.642 220.225C52.642 220.225 2.15801 144.271 1.57001 144.484C0.979008 144.697 0.00698815 145.742 0.174988 147.086C0.344988 148.431 42.406 218.574 43.547 218.996C44.688 219.415 52.642 220.225 52.642 220.225Z" fill="#A19896"/>
<path d="M39.2979 157.811C39.2979 157.811 2.58296 140.041 0.952962 142.753C-0.679038 145.464 51.9439 220.246 51.9439 220.246L56.6649 168.086L39.2979 157.811Z" fill="#BBB1B0"/>
<path d="M113.459 162.876L30.146 102.086C30.146 102.086 26.637 100.694 27.093 103.389C27.548 106.084 48.156 213.492 48.156 213.492L50.421 218.129L113.459 162.876Z" fill="#F9E1E2"/>
<path d="M217.538 214.078C217.538 214.078 218.872 212.687 217.218 210.904C215.56 209.12 136.622 147.313 135.177 146.024C133.731 144.737 131.689 143.784 126.936 148.887C122.182 153.99 50.421 218.127 50.421 218.127L140.171 253.883L217.538 214.078Z" fill="#DABFC0"/>
<path d="M226.485 220.968C226.485 220.968 160.498 167.226 158.806 166.168C157.118 165.11 155.28 164.795 150.659 167.041C146.039 169.286 50.423 218.128 50.423 218.128C50.423 218.128 139.081 257.468 143.105 258.159C147.127 258.851 150.762 258.916 162.001 252.802C173.24 246.693 226.485 220.968 226.485 220.968Z" fill="#BBB1B0"/>
<path d="M226.333 224.24C226.333 224.24 160.346 170.497 158.656 169.439C156.968 168.382 155.13 168.065 150.508 170.311C145.887 172.557 48.7229 219.944 48.7229 219.944C48.7229 219.944 138.931 260.739 142.952 261.43C146.975 262.123 150.609 262.186 161.848 256.076C173.09 249.964 226.333 224.24 226.333 224.24Z" fill="#A7989C"/>
<path d="M83.6781 145.476C86.8441 144.831 89.7911 142.935 87.0781 139.728C85.3531 137.812 83.1461 135.8 81.0571 134.232C79.9111 133.371 70.2781 131.142 71.8231 132.34C73.8891 133.943 75.4201 135.652 76.4021 136.507C77.4861 137.45 78.5301 138.441 79.5471 139.464C80.3941 140.316 81.0691 140.74 80.8261 141.98C80.4351 143.986 81.5371 145.91 83.6781 145.476Z" fill="#ECAD89"/>
<path d="M181.822 207.969C180.948 208.876 177.309 206.482 176.519 206.036C174.42 204.854 172.291 203.813 170.292 202.436C167.704 200.651 164.994 198.776 162.938 196.295C162.051 195.227 161.604 193.988 161.072 192.717C160.415 191.144 159.453 189.063 158.288 187.836C157.214 186.704 155.693 187.913 155.018 188.996C154.317 190.115 154.389 191.53 154.699 192.801C155.117 194.514 157.302 197.465 154.303 197.274C153.091 197.198 151.879 196.776 150.699 196.458C149.314 196.081 147.97 195.571 146.589 195.188C144.564 194.626 142.405 194.417 140.416 193.735C138.563 193.104 136.705 192.637 134.744 192.444C132.469 192.218 129.592 192.268 127.506 193.379C127.031 193.63 126.55 193.839 126.102 194.139C124.983 194.889 124.095 195.986 123.407 197.169C122.407 198.894 121.526 201.358 121.813 203.397C122.039 204.997 122.638 206.232 123.711 207.342C124.858 208.533 125.565 210.127 126.759 211.319C127.339 211.899 127.979 212.362 128.611 212.876C129.997 213.994 131.453 214.942 132.861 216.017C135.355 217.915 137.806 219.882 140.338 221.714C143.627 224.097 147.087 226.513 151.131 227.089C154.498 227.566 157.747 226.198 161.052 225.704C162.656 225.466 164.374 225.359 165.963 225.715C167.134 225.982 168.337 226.22 169.405 226.812C170.351 227.332 170.853 227.88 171.98 227.941" fill="#ECAD89"/>
<path d="M248.768 128.228C248.914 127.013 249.09 125.8 249.295 124.591C249.82 121.468 250.525 118.371 251.322 115.31C252.412 111.159 253.707 107.09 254.529 102.892C255.261 99.1504 257.959 96.3284 260.607 93.7734C261.761 92.6604 262.959 91.5544 264.138 90.4794C264.515 90.1384 264.954 89.0784 265.243 88.8694C268.034 88.3264 272.091 87.4424 274.819 88.4014C277.727 89.4224 280.809 92.4484 283.194 94.4164C288.403 98.7184 293.09 103.725 297.026 109.322C312.608 131.482 316.104 159.062 310.465 185.144C307.361 198.948 301.983 212.29 292.945 222.864C284.263 232.935 271.795 239.544 259.599 243.754C242.728 249.619 222.494 249.974 205.102 245.649C204.206 245.424 203.307 245.204 202.414 244.971C194.98 243.02 187.663 240.457 180.796 236.873C177.384 235.092 174.087 233.061 170.977 230.746C169.797 229.869 168.298 229.101 168.567 227.383C168.855 225.553 170.203 223.786 170.867 222.082C172.863 216.977 174.783 211.854 177.128 206.902C178.405 204.205 179.229 201.951 182.242 201.677C184.732 201.453 187.242 201.453 189.731 201.652C192.193 201.849 194.642 202.68 197.078 202.834C201.651 203.119 206.589 202.759 211.131 202.053C222.955 200.217 234.836 195.837 242.77 185.982C249.077 178.15 253.163 164.354 251.204 154.154C250.499 150.483 249.409 146.893 248.837 143.081C248.095 138.115 248.177 133.148 248.768 128.228Z" fill="#9AD4D7"/>
</svg>
