<svg width="400" height="380" viewBox="0 0 400 380" fill="none" xmlns="http://www.w3.org/2000/svg">
<path d="M61.3697 52.2948C61.9287 48.4358 62.0068 42.9818 64.2368 39.3988C65.0608 38.0738 66.3967 37.1518 67.2137 35.8368C68.4387 33.8608 69.5227 29.8148 67.2797 27.9888C64.9727 26.1138 59.6078 27.0208 59.0498 30.2468C59.3208 28.6308 56.8817 26.2248 56.1337 24.9338C55.1027 23.1508 54.5298 21.2148 53.7528 19.3028C52.2098 15.5098 49.9887 11.1178 45.4067 10.6618C42.0007 10.3238 40.9377 12.7638 39.5867 15.4528C38.3987 17.8148 36.6727 20.3748 35.7897 22.9578C34.2797 27.3688 36.1807 33.4568 37.8967 37.6038C39.8557 42.3438 43.2207 46.5068 46.1257 50.6868C47.6787 52.9248 50.0317 57.9558 52.9287 58.6588" fill="#ECAD89"/>
<path d="M164.459 159.256C165.979 154.291 167.734 149.447 168.584 144.295C169.66 137.754 173.109 120.549 163.59 118.538C159.385 117.648 154.578 117.877 150.246 117.172C141.357 115.727 131.476 114.386 123.67 109.76C115.822 105.108 106.516 100.637 100.809 93.5099C95.0768 86.3479 90.4239 78.7368 84.5859 71.7348C80.0269 66.2688 75.9138 60.7458 71.9838 54.8678C70.4838 52.6228 68.6638 48.9908 66.0948 47.9618C60.8428 45.8538 53.2508 50.2128 48.1358 51.3988C45.9738 51.8998 45.0418 51.8819 44.7098 54.0079C44.3138 56.5469 45.8368 60.4628 46.2508 62.9958C47.4328 70.1918 48.5788 77.3948 49.9908 84.5528C52.8658 99.1228 56.5028 114.487 65.2078 126.662C69.5458 132.729 72.8448 138.766 78.2528 144.108C83.4818 149.274 89.3098 153.792 95.2218 158.141C102.743 163.676 110.689 168.46 118.788 173.066C126.397 177.395 135.255 181.732 140.946 188.297C146.78 195.026 153.239 187.419 155.616 181.436C158.588 173.957 162.086 167.017 164.459 159.256Z" fill="#9AD4D7"/>
<path d="M184.811 248.943C174.573 248.212 159.889 243.397 154.295 256.046C150.986 263.525 153.764 277.347 154.557 285.46C156.078 300.984 161.473 331.698 181.557 332.849C190.651 333.37 178.536 379.288 178.536 379.288L272.577 378.705C272.577 378.705 277.528 318.898 279.548 312.505C283.597 300.359 282.784 283.761 281.976 270.806C281.572 264.734 281.976 259.066 277.119 256.23C269.83 252.183 257.281 254.208 249.183 253.8C227.727 252.989 206.672 250.157 184.811 248.943Z" fill="#7E4F22"/>
<path d="M204.25 278.518C229.336 279.564 256.816 276.599 270.676 252.664C276.897 241.922 273.639 230.979 271.1 219.55C269.536 212.503 267.502 205.559 266.084 198.487C264.502 190.578 263.584 182.741 261.545 174.909C259.451 166.87 257.408 158.693 254.699 150.822C252.57 144.64 249.342 138.922 246.392 133.111C244.242 128.875 242.519 125.234 237.679 123.737C233.429 122.424 228.435 122.452 224.013 121.968C212.378 120.695 198.734 122.31 189.15 129.795C185.609 132.56 181.533 136.447 179.474 140.493C178.439 142.527 177.63 144.831 176.888 146.993C174.74 153.262 176.304 158.425 176.265 164.728C176.228 171.124 173.8 178.122 173.029 184.581C170.957 201.906 168.752 220.335 162.521 236.724C160.525 241.979 159.253 248.339 159.316 253.901C159.398 261.046 162.347 262.439 167.802 266.646C178.098 274.578 191.167 277.974 204.25 278.518Z" fill="#9AD4D7"/>
<path d="M228.973 148.15C229.614 142.172 229.7 135.193 232.346 130.007C234.969 124.87 238.145 119.236 242.01 114.959C245.395 111.218 248.537 99.1968 253.936 98.6618C257.93 98.2658 262.188 100.99 265.485 102.897C268.784 104.806 273.075 105.652 275.421 108.848C281.339 116.911 283.663 129.427 285.546 138.952C287.653 149.624 288.542 160.476 289.65 171.285C290.339 178.019 289.337 184.247 290.15 190.909C291.152 199.101 292.283 207.279 293.652 215.424C300.873 258.4 288.207 284.566 288.207 284.566H222.039C222.039 284.566 203.207 253.234 212.027 208.843C212.881 204.545 216.105 200.934 217.681 196.889C223.501 181.954 226.411 166.12 228.704 150.317C228.805 149.613 228.895 148.889 228.973 148.15Z" fill="#E9483A"/>
<path d="M131.022 223.54C131.274 221.871 131.491 220.19 131.596 218.474C132.168 209.293 136.174 199.556 140.473 191.686C144.118 185.018 146.403 178.582 148.514 171.362C151.784 160.19 156.557 149.744 158.766 138.182C159.627 133.676 161.014 129.319 161.495 124.748C161.858 121.315 161.544 119.221 164.813 117.605C168.811 115.631 173.079 114.275 177.036 112.17C180.056 110.561 183.311 111.846 186.581 112.494C189.755 113.123 186.384 125.272 186.122 127.057C185.173 133.564 184.39 140.239 185.36 146.793C186.319 153.27 187.075 159.746 187.897 166.241C189.145 176.068 189.672 186.837 193.28 196.161C196.983 205.744 201.007 214.203 201.007 224.768C201.007 265.231 188.468 284.563 188.468 284.563H142.419C142.419 284.563 134.54 261.299 133.126 257.459C132.101 254.678 131.55 251.826 131.044 248.912C130.411 245.271 130.11 241.658 129.769 237.977C129.303 232.94 130.303 228.297 131.022 223.54Z" fill="#E9483A"/>
<path d="M247.063 84.4978C253.301 86.5858 256.645 90.4438 256.18 97.5078C255.793 102.803 253.94 106.401 249.323 108.824C246.444 110.153 244.178 110.481 241.184 111.217C236.637 112.166 233.125 118.041 230.43 121.598C222.186 132.401 208.399 135.245 195.813 136.378C192.016 136.627 187.948 138.191 184.186 136.877C182.444 136.266 181.137 135.742 181.227 133.542C181.297 131.813 182.165 130.237 182.28 128.527C182.364 127.332 182.28 126.036 182.036 124.863C181.831 123.892 181.593 123.16 181.78 122.162C181.971 121.144 181.885 120.367 181.688 119.35C181.44 118.086 181.35 116.794 181.229 115.512C180.999 113.111 180.594 110.744 180.502 108.324C180.439 106.649 180.373 104.962 180.393 103.289C180.43 99.7538 179.163 96.4768 178.834 93.0178C177.404 77.7218 181.504 65.3588 181.859 64.2188C183.371 59.4208 186.841 54.6148 189.763 50.5938C194.423 44.1868 200.902 41.1188 208.509 41.0608C217.519 41.0758 229.974 42.7398 237.021 48.7068C241.755 52.9338 244.308 58.6698 245.419 65.0738C245.98 68.2038 245.997 70.8618 245.302 73.7808C244.616 76.4008 243.525 78.7098 244.378 81.5558" fill="#ECAD89"/>
<path d="M253.922 73.0828C260.11 77.3328 261.658 84.4978 255.055 89.2808C250.789 92.2148 245.879 90.7597 243.735 96.5547C242.003 101.585 244.538 105.675 245.464 110.052C246.939 118.788 241.706 126.397 236.548 132.436C228.21 142.249 213.952 150.188 201.573 149.957C195.932 150.061 189.604 148.956 184.483 145.939C182.469 144.974 180.413 143.46 179.09 141.582C178.506 140.754 177.74 140.055 177.194 139.227C176.465 138.126 176.424 136.561 176.436 135.274C176.448 133.555 176.911 132.455 177.661 131.033C178.218 129.989 178.692 128.359 178.589 127.138C178.521 126.263 178.292 125.386 178.245 124.485C177.806 115.983 184.516 113.928 190.597 113.086C196.648 112.211 204.843 111.543 212.665 114.891C218.231 116.354 225.065 120.835 229.851 114.778C239.044 102.645 219.288 91.4098 224.345 79.4628C227.718 71.3668 240.493 71.2268 239.144 59.7418C237.779 48.6478 225.951 52.7737 218.724 54.7687C211.12 56.7477 199.755 58.9257 195.734 48.4877C190.39 34.0467 209.996 32.2817 218.273 31.9137C232.562 31.4567 244.066 34.4007 251.712 47.7797C256.218 55.8807 261.401 65.5927 253.55 73.0677" fill="white"/>
<path d="M201.004 78.9177C208.106 79.2777 213.563 86.0638 213.193 94.0778C212.822 102.09 206.767 108.294 199.67 107.933C192.572 107.576 187.115 100.787 187.482 92.7738C187.854 84.7618 193.907 78.5577 201.004 78.9177ZM189.625 92.8848C189.318 99.5608 193.863 105.217 199.781 105.517C205.693 105.817 210.744 100.645 211.051 93.9688C211.358 87.2908 206.813 81.6358 200.897 81.3358C194.977 81.0368 189.932 86.2068 189.625 92.8848Z" fill="#172446"/>
<path d="M177.254 80.9647C181.639 81.1867 184.94 86.8727 184.629 93.6637C184.316 100.455 180.504 105.783 176.125 105.56C171.74 105.34 168.439 99.6527 168.752 92.8617C169.063 86.0687 172.874 80.7427 177.254 80.9647ZM170.075 92.9277C169.815 98.5877 172.567 103.326 176.22 103.512C179.872 103.697 183.044 99.2597 183.306 93.5997C183.568 87.9377 180.82 83.1997 177.165 83.0137C173.506 82.8287 170.334 87.2667 170.075 92.9277Z" fill="#172446"/>
<path d="M184.565 94.4968L188.381 94.6888L188.469 92.8238L184.647 92.6328L184.565 94.4968Z" fill="#172446"/>
<path d="M244.792 86.1538C247.655 85.1188 250.101 84.0598 252.524 86.3978C254.284 87.9638 255.454 90.0888 255.905 92.4738C256.833 96.8018 255.88 102.216 252.772 105.454C250.108 108.27 243.643 111.044 240.092 108.649C236.682 106.261 238.008 101.902 240.1 99.3478C243.26 94.9328 242.645 92.9818 242.034 87.9308L244.792 86.1538Z" fill="#ECAD89"/>
<path d="M247.061 85.3457L211.797 89.2067L212.098 94.9557L242.049 88.5987L247.061 85.3457Z" fill="#172446"/>
<path d="M373.413 41.6658C372.856 37.8068 372.776 32.3528 370.548 28.7698C369.722 27.4438 368.386 26.5218 367.569 25.2068C366.346 23.2308 365.262 19.1858 367.505 17.3598C369.812 15.4848 375.175 16.3908 375.735 19.6168C375.464 17.9998 377.901 15.5958 378.651 14.3038C379.682 12.5198 380.253 10.5848 381.03 8.67277C382.575 4.87877 384.794 0.48678 389.376 0.0317796C392.782 -0.30822 393.845 2.1328 395.198 4.8228C396.384 7.1848 398.11 9.74376 398.995 12.3268C400.505 16.7378 398.602 22.8258 396.888 26.9728C394.927 31.7128 391.562 35.8768 388.659 40.0568C387.106 42.2948 384.753 47.3258 381.852 48.0288" fill="#ECAD89"/>
<path d="M270.323 148.626C268.803 143.662 267.048 138.817 266.198 133.666C265.122 127.125 261.673 109.92 271.192 107.908C275.397 107.019 280.206 107.247 284.538 106.543C293.427 105.097 303.308 103.756 311.112 99.1308C318.962 94.4788 328.266 90.0077 333.973 82.8787C339.707 75.7187 344.358 68.1077 350.198 61.1057C354.755 55.6397 358.87 50.1147 362.798 44.2377C364.3 41.9937 366.12 38.3608 368.687 37.3328C373.941 35.2248 381.533 39.5827 386.648 40.7697C388.808 41.2697 389.742 41.2518 390.072 43.3768C390.468 45.9168 388.947 49.8337 388.533 52.3657C387.349 59.5627 386.205 66.7658 384.791 73.9238C381.918 88.4928 378.281 103.857 369.576 116.032C365.238 122.1 361.939 128.137 356.531 133.479C351.301 138.644 345.472 143.162 339.56 147.512C332.039 153.047 324.091 157.831 315.996 162.436C308.385 166.766 299.529 171.102 293.838 177.668C288.002 184.397 281.543 176.791 279.168 170.807C276.196 163.328 272.696 156.388 270.323 148.626Z" fill="#9AD4D7"/>
<path d="M199.125 308.642L211.797 377.49L182.741 341.916L199.125 308.642Z" fill="#6B401E"/>
<path d="M205.526 379.287H14.4948C14.4948 379.287 5.08474 340.875 0.818739 323.631C-1.29626 315.086 0.60772 311.339 7.44972 311.339C29.1647 311.339 175.966 311.339 175.966 311.339L205.526 379.287Z" fill="white"/>
<path d="M217.391 379.287H113.245L92.9518 311.339C92.9518 311.339 161.878 311.339 184.852 311.339C187.702 311.339 195.643 311.02 198.877 319.781C205.411 337.471 217.391 379.287 217.391 379.287Z" fill="#EFEEEF"/>
<path d="M50.8167 229.099C49.7877 229.714 48.7537 230.333 47.6667 230.833C46.7447 231.254 45.7387 231.462 44.8657 231.971C43.0047 233.06 40.8947 233.661 38.7757 234.07C34.2327 234.942 29.4147 234.704 25.0507 233.122C20.3297 231.412 16.6618 228.068 14.6018 223.452C13.2148 220.345 12.2287 217.646 12.1447 214.152C12.0837 211.816 12.7757 209.589 13.7777 207.508C14.7937 205.4 15.9747 203.642 17.6737 202.029C18.8727 200.884 20.2557 200.06 21.7777 199.412C23.1367 198.83 24.1057 197.832 25.5477 197.387C28.9127 196.346 32.5127 196.545 35.9887 196.541C40.1347 196.541 44.5847 197.235 48.2037 199.363C51.3187 201.19 53.7247 203.961 55.8677 206.822C59.3947 211.522 61.3407 217.774 57.4927 222.94C55.7037 225.34 53.4007 227.553 50.8167 229.099Z" fill="#E72A47"/>
<path d="M54.1938 183.49C52.0458 179.348 55.4687 173.376 60.5647 174.807C63.9147 175.765 65.1838 178.551 64.7058 181.659C67.4168 181.42 70.6828 183.65 70.3618 186.597C69.7208 191.535 63.5938 193.285 59.8498 191.056C59.2888 190.738 59.4498 190.497 58.7348 190.418C57.2988 190.179 56.1057 191.533 54.4337 190.815C50.1347 189.142 51.4868 184.284 53.4768 181.577" fill="#14893B"/>
<path d="M58.8927 198.064C59.3287 196.08 59.5258 194.978 61.1548 193.73C62.3288 192.832 63.6318 192.072 65.0928 191.773C66.8778 191.403 69.1628 191.421 70.8178 192.257C73.3258 193.523 74.8378 196.197 74.0988 199.011C75.7198 198.537 76.8218 197.978 78.5738 198.534C81.5168 199.47 83.3898 202.716 83.8338 205.637C84.4938 209.964 82.6638 212.939 78.7248 214.677C77.6428 215.156 76.4028 215.543 75.2738 214.943C74.3458 214.451 73.9188 213.359 73.2108 212.636C72.7378 212.898 72.5898 213.666 72.3908 214.103C71.4138 216.245 70.1658 218.352 67.8338 219.159C65.8948 219.829 63.3548 219.943 61.5718 218.732C60.4218 217.954 60.1598 216.544 59.7538 215.318C57.6818 217.125 56.1718 218.95 53.1088 218.954C50.8338 218.958 48.5798 216.825 48.3838 214.501C46.9148 214.726 44.8017 215.482 43.6157 214.105C42.1897 212.449 43.0518 208.837 43.5978 207.019C44.6348 203.596 47.3247 201.898 50.7887 201.462C52.4607 201.251 55.2477 201.029 56.7357 202.05C55.2397 198.728 60.1577 196.073 62.8767 196.234" fill="#036335"/>
<path d="M41.8537 186.199C42.6487 183.729 43.9198 180.703 46.7108 179.985C48.2208 179.669 49.5737 180.464 50.8497 181.18C51.0077 179.11 53.6387 177.754 55.4687 177.515C58.0997 177.119 61.3647 178.551 62.9527 180.703C65.3457 184.049 64.3097 187.949 61.9997 190.895C63.1927 191.294 64.0717 191.134 65.1857 191.852C66.3807 192.648 67.4947 193.842 68.1287 195.119C69.6467 198.143 67.8947 201.091 65.2657 202.764C62.2407 204.754 58.5767 206.188 54.8317 205.549C53.0777 205.233 51.7267 204.596 50.6127 203.32C50.1337 202.763 49.6538 202.287 49.3358 201.568C49.0198 201.011 49.0998 200.134 48.7788 199.659C48.7008 199.577 48.7008 199.261 48.7008 199.18C47.9038 199.022 47.4256 199.817 46.7886 200.215C45.9936 200.612 45.1167 200.931 44.2397 200.931C42.2517 201.012 40.4977 199.739 39.4587 198.065C38.1047 195.836 37.7888 192.889 38.4298 190.419C38.8248 188.827 39.7817 184.844 41.4527 184.049" fill="#8FB829"/>
<path d="M37.9478 206.736C37.6318 209.15 37.5518 212.424 39.8598 213.804C40.8148 214.406 42.0098 214.406 43.0458 214.148C44.0808 213.804 44.4009 212.855 45.1959 212.424C46.6299 211.82 48.0628 212.855 49.7348 212.253C51.0898 211.818 51.8048 210.96 52.3638 209.579C52.5218 209.148 52.5218 208.114 52.8408 207.769C53.9558 206.563 55.3899 206.994 55.6279 204.581C55.8659 202.169 53.7179 199.755 51.4869 199.755C50.9279 199.843 50.4498 200.187 49.9748 200.187C49.1738 200.187 48.2208 199.669 47.4258 199.583C44.3988 199.238 41.9298 200.703 39.9398 203.201" fill="#14893B"/>
<path d="M30.5297 180.035C28.7587 180.887 27.2837 182.184 26.4927 184.054C26.0547 185.084 25.9207 186.2 25.9067 187.311C25.8947 188.202 26.3227 189.626 26.0687 190.455C25.7147 191.62 23.6257 190.823 22.6347 190.989C21.4377 191.189 20.3217 192.182 19.6097 193.134C17.7287 195.635 17.5707 199.21 18.4827 202.113C18.9497 203.595 19.7307 205.007 20.8697 206.081C21.2037 206.394 24.6197 208.67 24.9677 207.941C24.1727 209.615 26.0828 212.56 27.3568 213.755C28.8728 215.109 30.8647 215.746 32.9327 215.507C37.0757 214.95 41.5347 211.444 42.0107 207.065C43.1257 206.907 44.6397 208.021 45.8347 208.181C46.8677 208.26 47.9048 208.26 48.8618 207.941C51.3268 206.986 52.4457 203.8 52.9227 201.412C53.8777 196.634 49.2587 191.458 44.3207 192.651C46.3887 190.66 45.8348 187.395 44.9558 185.006C43.9208 181.98 42.5686 179.191 39.1426 178.792C36.4826 178.481 33.1757 178.759 30.5297 180.035Z" fill="#036335"/>
<path d="M133.678 228.158C131.559 227.716 129.362 226.946 127.467 225.897C124.899 224.469 125.049 221.508 125.946 218.984C126.784 216.621 127.348 214.164 128.206 211.8C129.915 207.078 132.038 202.562 134.499 198.182C137.579 192.639 140.728 187.166 144.353 181.965C148.595 175.875 153.044 169.443 158.998 164.926C162.627 162.188 166.525 160.956 171.043 161.573C175.285 162.121 179.188 164.719 179.732 169.304C180.142 172.658 179.115 175.736 178.226 178.952C177.613 181.414 176.923 183.879 176.105 186.274C172.412 196.811 167.209 206.666 162.554 216.791C161.048 220.011 159.954 223.432 158.038 226.441C156.122 229.383 152.427 229.246 149.073 229.246C144.01 229.25 138.739 229.319 133.678 228.158Z" fill="#DA9B3A"/>
<path d="M160.235 185.093C163.555 184.63 167.712 184.014 171.081 184.924C172.091 185.196 173.698 185.786 173.267 187.127C172.736 188.943 169.183 189.805 167.634 190.316C160.753 192.739 152.402 194.583 145.044 193.818C144.036 193.692 141.876 193.538 141.349 192.474C140.828 191.437 143.779 189.596 144.628 189.145C146.679 188.06 148.819 187.352 151.069 186.81C154.094 186.084 157.151 185.499 160.235 185.093Z" fill="#F5CA83"/>
<path d="M153.254 201.995C156.574 201.531 160.733 200.916 164.102 201.826C165.114 202.097 166.719 202.685 166.288 204.029C165.755 205.844 162.198 206.706 160.657 207.219C153.774 209.641 145.421 211.485 138.065 210.721C137.055 210.592 134.901 210.438 134.37 209.376C133.849 208.339 136.8 206.497 137.647 206.047C139.696 204.961 141.836 204.252 144.092 203.711C147.114 202.986 150.172 202.4 153.254 201.995Z" fill="#F5CA83"/>
<path d="M108.09 143.492L101.783 143.289L100.709 144.785L100.635 147.041L99.9938 147.844L99.9098 150.459L100.799 151.564L100.16 171.622C100.16 171.622 100.16 178.04 97.9778 180.229C95.8058 182.418 88.4548 187.524 88.1128 196.601C87.7688 205.679 87.6128 212.196 87.6128 212.196L105.566 212.77L105.029 212.753L122.984 213.326C122.984 213.326 123.244 206.813 123.484 197.732C123.724 188.651 116.711 183.086 114.681 180.76C112.652 178.436 113.06 172.031 113.06 172.031L113.703 151.973L114.66 150.925L114.744 148.31L114.154 147.469L114.228 145.211L113.249 143.651L106.938 143.448L108.09 143.492Z" fill="#040000"/>
<path d="M113.063 172.036L113.704 151.978L114.661 150.93L114.745 148.315L114.155 147.474L114.229 145.217L113.25 143.658L106.942 143.455L108.09 143.492L101.784 143.289L100.709 144.785L100.635 147.041L99.9948 147.844L99.9108 150.459L100.799 151.565L100.161 171.622" fill="#951E25"/>
<path d="M111.678 168.756C111.635 170.115 110.496 171.182 109.135 171.14L108.725 171.125C107.368 171.082 106.299 169.942 106.342 168.584L107.033 147.041C107.072 145.681 108.213 144.614 109.57 144.657L109.982 144.671C111.341 144.715 112.408 145.852 112.367 147.211L111.678 168.756Z" fill="#661115"/>
<path d="M87.2163 223.893L122.635 225.026L123.098 210.561L87.6795 209.427L87.2163 223.893Z" fill="#D0C8BD"/>
<path opacity="0.4" d="M95.9068 215.492C95.8618 216.85 94.7268 217.918 93.3658 217.875L92.9538 217.861C91.5948 217.817 90.5278 216.678 90.5688 215.32L91.2579 193.774C91.3009 192.418 92.4438 191.348 93.8008 191.391L94.2109 191.408C95.5719 191.451 96.6388 192.587 96.5918 193.947L95.9068 215.492Z" fill="white"/>
<path d="M59.0317 198.416V223.87H81.3228L90.4277 182.266H72.7738L59.0317 198.416Z" fill="#F4F4F2"/>
<path d="M72.7738 178.571H90.9048V182.54L104.454 198.072V223.87H77.4967V198.416L89.8788 182.54L72.7738 182.47V178.571Z" fill="#D2191A"/>
<path d="M115.475 184.457L108.803 219.084L135.901 224.912L141.907 189.472L134.157 187.93C134.157 187.93 134.065 190.753 130.925 190.138C128.31 189.624 129.105 187.11 129.105 187.11L115.475 184.457Z" fill="#F3CC5B"/>
<path d="M122.249 192.523C122.249 193.642 121.343 194.551 120.222 194.551C119.105 194.551 118.201 193.642 118.201 192.523C118.201 191.403 119.105 190.497 120.222 190.497C121.342 190.496 122.249 191.403 122.249 192.523Z" fill="#F0BA42"/>
<path d="M124.276 205.943C124.276 207.064 123.368 207.972 122.249 207.972C121.132 207.972 120.222 207.064 120.222 205.943C120.222 204.827 121.132 203.919 122.249 203.919C123.368 203.918 124.276 204.826 124.276 205.943Z" fill="#F0BA42"/>
<path d="M128.397 219.415C130.203 219.415 131.667 217.951 131.667 216.145C131.667 214.339 130.203 212.875 128.397 212.875C126.591 212.875 125.127 214.339 125.127 216.145C125.127 217.951 126.591 219.415 128.397 219.415Z" fill="#F0BA42"/>
<path d="M135.543 200.916C135.543 202.389 134.346 203.584 132.875 203.584C131.398 203.584 130.201 202.389 130.201 200.916C130.201 199.44 131.398 198.248 132.875 198.248C134.346 198.248 135.543 199.441 135.543 200.916Z" fill="#F0BA42"/>
<path d="M113.936 217.698C115.41 217.698 116.605 216.503 116.605 215.029C116.605 213.555 115.41 212.36 113.936 212.36C112.462 212.36 111.267 213.555 111.267 215.029C111.267 216.503 112.462 217.698 113.936 217.698Z" fill="#F0BA42"/>
<path d="M32.3988 275.821C32.3288 275.508 32.2527 275.198 32.1737 274.885C30.3007 267.335 26.9607 260.001 23.6367 252.991C22.4487 250.486 20.2797 248.766 19.1427 246.24C17.4927 242.575 16.0728 238.751 14.7598 234.952C14.4568 234.07 12.8358 231.187 13.1968 230.241C13.3998 229.706 14.7357 229.47 15.1987 229.331C27.3867 225.687 39.9817 223.65 52.4137 220.802C57.3417 219.673 62.3728 217.415 67.5038 217.313C75.7168 217.21 84.1327 218.237 92.4447 218.545C104.66 219.057 116.773 219.263 128.986 219.982C138.224 220.496 147.361 221.112 156.597 221.316C158.958 221.316 161.322 221.42 163.577 221.42C165.837 221.42 165.94 221.728 165.632 223.984C165.116 227.884 163.78 231.476 163.37 235.38C162.858 241.024 163.577 246.978 162.243 252.521C161.626 254.882 160.909 257.242 160.087 259.5C159.267 261.759 159.573 262.682 160.497 264.938C162.653 270.584 165.427 276.027 167.272 281.772C168.604 285.673 170.762 289.471 170.348 293.578C169.735 300.661 170.244 308.154 170.762 315.236C170.866 316.672 171.58 318.519 170.451 319.34C169.426 320.059 166.553 319.752 165.424 319.852C163.68 319.957 161.934 320.163 160.188 320.264C155.672 320.468 151.157 320.674 146.743 320.881C135.555 321.394 124.573 321.905 113.485 322.009C98.7058 322.111 84.0278 321.701 69.3478 323.137C59.9048 324.062 50.7718 326.012 41.2228 325.705C37.8358 325.601 34.6567 324.778 31.2677 323.96C30.1367 323.648 26.7518 323.241 26.0318 322.11C25.6218 321.392 26.1338 320.161 26.2388 319.44C26.8518 316.567 27.6748 313.695 28.2918 310.821C29.9368 303.224 31.3698 295.629 32.9088 288.033C33.3228 285.568 34.1428 282.899 33.6298 280.438C33.3248 278.899 32.8108 277.361 32.3988 275.821Z" fill="#F4CCA4"/>
<path d="M64.5587 218.955C64.6937 216.612 64.8617 214.268 65.1247 211.936C65.1537 211.665 65.1888 211.394 65.2228 211.123C65.3378 210.162 65.0838 212.098 65.2168 211.143C65.2908 210.612 65.3747 210.084 65.4587 209.556C65.6447 208.442 65.8668 207.336 66.1228 206.237C66.3568 205.258 66.6288 204.289 66.9358 203.33C67.0858 202.862 67.2518 202.398 67.4258 201.937C67.5098 201.71 67.5997 201.485 67.6897 201.259C67.9647 200.578 67.2837 202.178 67.7557 201.135C68.1487 200.27 68.5997 199.434 69.0897 198.621C69.3337 198.221 69.5977 197.83 69.8667 197.444C70.0017 197.252 70.1397 197.063 70.2827 196.877C69.5037 197.916 70.1967 197.008 70.3807 196.795C70.9957 196.066 71.6777 195.399 72.3927 194.77C72.5787 194.61 72.7638 194.457 72.9518 194.303C73.6408 193.742 72.1818 194.877 72.9048 194.346C73.3778 193.999 73.8697 193.682 74.3717 193.375C74.8167 193.104 75.2777 192.854 75.7407 192.615C76.0137 192.473 77.6277 191.76 76.4887 192.236C77.6137 191.764 78.7778 191.393 79.9558 191.074C82.0338 190.508 84.1567 190.112 86.2877 189.805C84.9907 189.993 86.8467 189.744 87.1607 189.708C87.7367 189.643 88.3127 189.59 88.8897 189.541C90.1667 189.432 91.4507 189.364 92.7337 189.329C95.2237 189.258 97.7197 189.344 100.203 189.589C100.496 189.618 100.787 189.652 101.078 189.686C102.099 189.805 100.14 189.55 101.148 189.693C101.718 189.772 102.289 189.871 102.859 189.973C104.045 190.192 105.222 190.474 106.384 190.811C106.904 190.96 107.409 191.131 107.915 191.307C108.163 191.395 108.407 191.49 108.651 191.582C109.522 191.918 107.78 191.199 108.62 191.565C109.616 191.999 110.571 192.521 111.475 193.118C111.69 193.262 111.903 193.414 112.112 193.566C111.171 192.879 111.895 193.405 112.087 193.563C112.478 193.887 112.849 194.24 113.21 194.6C113.569 194.957 113.903 195.337 114.233 195.724C114.391 195.912 114.932 196.635 114.215 195.69C114.422 195.961 114.615 196.242 114.807 196.521C115.383 197.375 115.883 198.281 116.338 199.202C116.453 199.436 116.563 199.674 116.668 199.911C117.059 200.762 116.313 199.028 116.668 199.895C116.904 200.466 117.115 201.052 117.311 201.638C118.045 203.784 118.534 206.008 118.901 208.242C118.952 208.555 119.198 210.373 119.028 209.057C119.098 209.602 119.159 210.149 119.216 210.697C119.339 211.871 119.425 213.049 119.493 214.225C119.62 216.377 119.661 218.534 119.673 220.69C119.677 221.169 119.679 221.652 119.679 222.131C119.679 224.37 121.546 226.237 123.784 226.237C126.022 226.237 127.889 224.37 127.889 222.131C127.883 212.832 127.483 203.043 123.196 194.59C121.044 190.342 117.536 186.744 113.227 184.682C108.506 182.423 103.311 181.541 98.1228 181.204C92.9878 180.873 87.8197 181.271 82.7457 182.093C78.1457 182.834 73.5267 184.141 69.5797 186.684C65.7617 189.146 62.7167 192.672 60.7657 196.767C58.6777 201.145 57.7027 205.799 57.0777 210.58C56.7147 213.356 56.5037 216.153 56.3457 218.948C56.2207 221.184 58.3088 223.053 60.4508 223.053C62.7878 223.06 64.4357 221.19 64.5587 218.955Z" fill="#F4CCA4"/>
</svg>
