<svg width="439" height="261" viewBox="0 0 439 261" fill="none" xmlns="http://www.w3.org/2000/svg">
<path d="M223.914 260.132C175.939 260.153 127.963 260.245 79.9855 260.118C46.5985 260.032 17.9025 241.077 6.19553 211.755C-6.09347 180.972 1.10453 145.058 17.2145 117.997C39.3365 80.8357 86.3105 57.5897 118.064 71.4997C129.093 76.3317 153.239 18.8927 196.564 4.74373C246.533 -11.5723 301.162 15.4937 320.932 66.0857C325.473 77.7087 330.611 81.6637 343.031 80.1147C366.1 77.2377 385.725 93.8367 387.756 117.308C388.738 128.669 394.686 133.214 403.15 137.898C435.711 155.921 448.124 192.804 431.758 224.259C419.154 248.484 398.754 260.193 372.117 260.14C322.714 260.042 273.316 260.113 223.914 260.132Z" fill="#3E5AA7"/>
<path d="M301.004 183.576H363.902C363.902 183.576 335.724 177.885 334.872 157.963C333.976 137.062 332.88 109.088 332.88 95.3497C332.88 78.8407 301.004 83.9637 301.004 83.9637V183.576Z" fill="#BEDCDE"/>
<path d="M294.173 245.304H254.328V83.9628H319.219C319.219 83.9628 306.698 86.2928 306.698 96.7708C306.698 130.212 306.698 197.294 306.698 227.976C306.696 245.304 294.173 245.304 294.173 245.304Z" fill="#DAEEF0"/>
<path d="M288.196 245.052C288.196 245.052 174.353 245.62 127.386 245.052C123.513 245.005 117.797 237.806 116.292 234.237C91.3855 175.167 116.292 17.7927 116.292 17.7927H263.439L280.51 34.8707C280.51 34.8707 278.518 170.2 278.518 229.968C278.52 245.095 288.196 245.052 288.196 245.052Z" fill="white"/>
<path d="M280.518 34.8698H263.441V17.7917L280.518 34.8698Z" fill="#DAEEF0"/>
<path d="M132.518 109.864C136.291 109.864 139.349 106.805 139.349 103.033C139.349 99.26 136.291 96.2017 132.518 96.2017C128.746 96.2017 125.688 99.26 125.688 103.033C125.688 106.805 128.746 109.864 132.518 109.864Z" stroke="#19ABAF" stroke-width="3" stroke-miterlimit="10"/>
<path d="M131.665 137.362C135.438 137.362 138.496 134.303 138.496 130.531C138.496 126.758 135.438 123.7 131.665 123.7C127.893 123.7 124.834 126.758 124.834 130.531C124.834 134.303 127.893 137.362 131.665 137.362Z" stroke="#19ABAF" stroke-width="3" stroke-miterlimit="10"/>
<path d="M131.665 164.862C135.438 164.862 138.496 161.803 138.496 158.031C138.496 154.258 135.438 151.2 131.665 151.2C127.893 151.2 124.834 154.258 124.834 158.031C124.834 161.803 127.893 164.862 131.665 164.862Z" stroke="#19ABAF" stroke-width="3" stroke-miterlimit="10"/>
<path d="M132.518 192.36C136.291 192.36 139.349 189.301 139.349 185.529C139.349 181.756 136.291 178.698 132.518 178.698C128.746 178.698 125.688 181.756 125.688 185.529C125.688 189.301 128.746 192.36 132.518 192.36Z" stroke="#19ABAF" stroke-width="3" stroke-miterlimit="10"/>
<path d="M135.081 219.858C138.853 219.858 141.912 216.799 141.912 213.027C141.912 209.254 138.853 206.196 135.081 206.196C131.308 206.196 128.25 209.254 128.25 213.027C128.25 216.799 131.308 219.858 135.081 219.858Z" stroke="#19ABAF" stroke-width="3" stroke-miterlimit="10"/>
<path d="M150.164 98.7627H249.775" stroke="#19ABAF" stroke-width="2" stroke-miterlimit="10"/>
<path d="M150.164 106.732H249.775" stroke="#19ABAF" stroke-width="2" stroke-miterlimit="10"/>
<path d="M146.903 62.6177H237.978" stroke="#19ABAF" stroke-width="2" stroke-miterlimit="10"/>
<path d="M150.164 126.546H249.775" stroke="#19ABAF" stroke-width="2" stroke-miterlimit="10"/>
<path d="M150.164 134.515H249.775" stroke="#19ABAF" stroke-width="2" stroke-miterlimit="10"/>
<path d="M150.164 154.546H249.775" stroke="#19ABAF" stroke-width="2" stroke-miterlimit="10"/>
<path d="M150.164 162.515H249.775" stroke="#19ABAF" stroke-width="2" stroke-miterlimit="10"/>
<path d="M150.164 181.3H249.775" stroke="#19ABAF" stroke-width="2" stroke-miterlimit="10"/>
<path d="M150.164 189.269H249.775" stroke="#19ABAF" stroke-width="2" stroke-miterlimit="10"/>
<path d="M150.164 209.191H249.775" stroke="#19ABAF" stroke-width="2" stroke-miterlimit="10"/>
<path d="M150.164 217.16H249.775" stroke="#19ABAF" stroke-width="2" stroke-miterlimit="10"/>
<path d="M151.318 45.7748H153.495C153.733 45.7748 153.924 45.8308 154.068 45.9398C154.213 46.0498 154.298 46.1967 154.327 46.3777L155.194 53.0508C155.216 53.2088 155.234 53.3718 155.245 53.5388C155.257 53.7058 155.267 53.8558 155.279 53.9938C155.291 54.1578 155.297 54.3157 155.297 54.4697C155.382 54.2027 155.471 53.9527 155.565 53.7167C155.658 53.4837 155.745 53.2598 155.824 53.0508L158.357 46.3777C158.42 46.2247 158.54 46.0858 158.715 45.9608C158.89 45.8358 159.094 45.7737 159.326 45.7737H159.971C160.208 45.7737 160.403 45.8297 160.553 45.9377C160.703 46.0487 160.793 46.1957 160.822 46.3757L161.773 53.0488C161.801 53.2458 161.831 53.4627 161.862 53.6987C161.893 53.9317 161.921 54.1778 161.943 54.4318C162.016 54.1768 162.09 53.9338 162.164 53.7028C162.238 53.4708 162.312 53.2518 162.387 53.0488L164.833 46.3757C164.89 46.2167 165.011 46.0768 165.194 45.9548C165.379 45.8328 165.587 45.7717 165.819 45.7717H168.012L162.964 58.1558H160.447L159.307 50.3367C159.289 50.2127 159.27 50.0738 159.247 49.9238C159.225 49.7758 159.205 49.6168 159.188 49.4528C159.124 49.6168 159.064 49.7738 159.004 49.9238C158.944 50.0738 158.893 50.2127 158.848 50.3367L155.822 58.1558H153.323L151.318 45.7748Z" fill="#19ABAF"/>
<path d="M172.162 58.1589H169.374L170.887 45.7749H173.675L172.162 58.1589Z" fill="#19ABAF"/>
<path d="M183.499 48.2558C183.402 48.3928 183.305 48.4908 183.206 48.5538C183.106 48.6168 182.989 48.6478 182.853 48.6478C182.722 48.6478 182.592 48.6048 182.461 48.5198C182.331 48.4348 182.185 48.3418 182.023 48.2408C181.861 48.1378 181.676 48.0448 181.466 47.9608C181.256 47.8748 181.01 47.8328 180.727 47.8328C180.466 47.8328 180.238 47.8698 180.042 47.9428C179.847 48.0158 179.684 48.1188 179.554 48.2498C179.423 48.3798 179.325 48.5328 179.26 48.7088C179.195 48.8848 179.162 49.0768 179.162 49.2868C179.162 49.5138 179.225 49.7028 179.353 49.8538C179.481 50.0078 179.651 50.1428 179.863 50.2578C180.076 50.3738 180.315 50.4808 180.582 50.5758C180.848 50.6738 181.121 50.7758 181.402 50.8888C181.682 51.0018 181.957 51.1328 182.226 51.2818C182.495 51.4278 182.736 51.6128 182.949 51.8338C183.161 52.0558 183.331 52.3218 183.459 52.6338C183.587 52.9468 183.65 53.3208 183.65 53.7558C183.65 54.3788 183.543 54.9658 183.327 55.5158C183.111 56.0658 182.803 56.5448 182.4 56.9558C181.997 57.3668 181.509 57.6928 180.934 57.9338C180.359 58.1748 179.711 58.2948 178.992 58.2948C178.635 58.2948 178.276 58.2548 177.917 58.1758C177.557 58.0958 177.212 57.9858 176.88 57.8398C176.549 57.6948 176.241 57.5248 175.958 57.3258C175.674 57.1268 175.434 56.9058 175.235 56.6618L176.221 55.3708C176.294 55.2738 176.391 55.1948 176.509 55.1328C176.628 55.0698 176.747 55.0388 176.866 55.0388C177.024 55.0388 177.179 55.0938 177.329 55.2048C177.479 55.3148 177.645 55.4358 177.827 55.5698C178.008 55.7028 178.219 55.8258 178.46 55.9338C178.701 56.0448 178.997 56.0998 179.349 56.0998C179.865 56.0998 180.262 55.9588 180.543 55.6798C180.823 55.3998 180.963 54.9848 180.963 54.4338C180.963 54.1788 180.9 53.9688 180.773 53.8048C180.645 53.6408 180.478 53.5018 180.271 53.3888C180.064 53.2768 179.828 53.1738 179.561 53.0858C179.294 52.9978 179.023 52.9038 178.746 52.8018C178.468 52.6988 178.196 52.5798 177.93 52.4418C177.663 52.3018 177.427 52.1228 177.22 51.8978C177.013 51.6728 176.846 51.3998 176.719 51.0738C176.591 50.7478 176.528 50.3458 176.528 49.8708C176.528 49.3218 176.632 48.7928 176.839 48.2858C177.045 47.7788 177.341 47.3298 177.727 46.9378C178.113 46.5458 178.58 46.2358 179.129 46.0018C179.678 45.7698 180.297 45.6528 180.983 45.6528C181.334 45.6528 181.675 45.6888 182.007 45.7618C182.338 45.8358 182.649 45.9388 182.938 46.0698C183.227 46.1998 183.49 46.3528 183.728 46.5328C183.966 46.7108 184.167 46.9058 184.332 47.1148L183.499 48.2558Z" fill="#19ABAF"/>
<path d="M196.113 58.1589H193.325L193.971 52.8879H189.499L188.853 58.1589H186.065L187.595 45.7749H190.383L189.737 51.0029H194.208L194.854 45.7749H197.642L196.113 58.1589Z" fill="#19ABAF"/>
<path d="M202.642 55.9499H206.807L206.536 58.1589H199.599L201.129 45.7749H203.9L202.642 55.9499Z" fill="#19ABAF"/>
<path d="M212.45 58.1589H209.662L211.175 45.7749H213.963L212.45 58.1589Z" fill="#19ABAF"/>
<path d="M223.79 48.2558C223.693 48.3928 223.596 48.4908 223.497 48.5538C223.396 48.6168 223.28 48.6478 223.143 48.6478C223.012 48.6478 222.882 48.6048 222.751 48.5198C222.621 48.4348 222.475 48.3418 222.313 48.2408C222.152 48.1378 221.966 48.0448 221.756 47.9608C221.546 47.8748 221.3 47.8328 221.017 47.8328C220.756 47.8328 220.529 47.8698 220.332 47.9428C220.137 48.0158 219.974 48.1188 219.844 48.2498C219.713 48.3798 219.615 48.5328 219.55 48.7088C219.486 48.8848 219.452 49.0768 219.452 49.2868C219.452 49.5138 219.515 49.7028 219.642 49.8538C219.77 50.0078 219.941 50.1428 220.153 50.2578C220.366 50.3738 220.604 50.4808 220.872 50.5758C221.138 50.6738 221.411 50.7758 221.692 50.8888C221.971 51.0018 222.247 51.1328 222.515 51.2818C222.785 51.4278 223.026 51.6128 223.239 51.8338C223.451 52.0558 223.621 52.3218 223.749 52.6338C223.877 52.9468 223.94 53.3208 223.94 53.7558C223.94 54.3788 223.833 54.9658 223.617 55.5158C223.401 56.0658 223.093 56.5448 222.69 56.9558C222.287 57.3668 221.798 57.6928 221.223 57.9338C220.649 58.1748 220 58.2948 219.282 58.2948C218.925 58.2948 218.566 58.2548 218.207 58.1758C217.847 58.0958 217.502 57.9858 217.17 57.8398C216.839 57.6948 216.531 57.5248 216.248 57.3258C215.964 57.1268 215.724 56.9058 215.525 56.6618L216.51 55.3708C216.583 55.2738 216.68 55.1948 216.798 55.1328C216.917 55.0698 217.036 55.0388 217.155 55.0388C217.312 55.0388 217.468 55.0938 217.618 55.2048C217.767 55.3148 217.933 55.4358 218.116 55.5698C218.297 55.7028 218.508 55.8258 218.749 55.9338C218.99 56.0448 219.286 56.0998 219.638 56.0998C220.155 56.0998 220.551 55.9588 220.832 55.6798C221.112 55.3998 221.252 54.9848 221.252 54.4338C221.252 54.1788 221.189 53.9688 221.063 53.8048C220.934 53.6408 220.767 53.5018 220.56 53.3888C220.353 53.2768 220.118 53.1738 219.85 53.0858C219.583 52.9978 219.313 52.9038 219.036 52.8018C218.758 52.6988 218.486 52.5798 218.22 52.4418C217.953 52.3018 217.717 52.1228 217.51 51.8978C217.303 51.6728 217.136 51.3998 217.009 51.0738C216.881 50.7478 216.819 50.3458 216.819 49.8708C216.819 49.3218 216.923 48.7928 217.13 48.2858C217.336 47.7788 217.632 47.3298 218.018 46.9378C218.405 46.5458 218.872 46.2358 219.42 46.0018C219.969 45.7698 220.588 45.6528 221.274 45.6528C221.625 45.6528 221.965 45.6888 222.297 45.7618C222.628 45.8358 222.939 45.9388 223.228 46.0698C223.517 46.1998 223.781 46.3528 224.018 46.5328C224.256 46.7108 224.457 46.9058 224.622 47.1148L223.79 48.2558Z" fill="#19ABAF"/>
<path d="M236.232 45.7749L235.944 47.9659H232.798L231.539 58.1569H228.785L230.026 47.9659H226.865L227.135 45.7749H236.232Z" fill="#19ABAF"/>
</svg>
